<svg width="493" height="344" viewBox="0 0 493 344" fill="none" xmlns="http://www.w3.org/2000/svg">
<g clip-path="url(#clip0_0_26)">
<path d="M46.5489 192.108C42.9311 192.108 39.9966 189.153 39.9966 185.529C39.9966 181.896 42.9391 178.95 46.5489 178.95C50.1666 178.95 53.1011 181.904 53.1011 185.529C53.1011 189.153 50.1586 192.108 46.5489 192.108ZM46.5489 180.016C43.518 180.016 41.0579 182.486 41.0579 185.529C41.0579 188.572 43.518 191.042 46.5489 191.042C49.5798 191.042 52.0399 188.572 52.0399 185.529C52.0399 182.486 49.5717 180.016 46.5489 180.016Z" fill="#4E554F"/>
<path d="M461.75 179.555C458.133 179.555 455.198 176.601 455.198 172.977C455.198 169.352 458.141 166.398 461.75 166.398C465.36 166.398 468.303 169.352 468.303 172.977C468.303 176.601 465.368 179.555 461.75 179.555ZM461.75 167.455C458.719 167.455 456.259 169.925 456.259 172.969C456.259 176.012 458.719 178.482 461.75 178.482C464.781 178.482 467.241 176.012 467.241 172.969C467.249 169.934 464.781 167.455 461.75 167.455Z" fill="#4E554F"/>
<path d="M204.871 36.6876C201.254 36.6876 198.319 33.7332 198.319 30.1089C198.319 26.4764 201.262 23.5301 204.871 23.5301C208.481 23.5301 211.424 26.4845 211.424 30.1089C211.432 33.7413 208.489 36.6876 204.871 36.6876ZM204.871 24.5956C201.84 24.5956 199.38 27.0657 199.38 30.1089C199.38 33.1521 201.84 35.6221 204.871 35.6221C207.902 35.6221 210.362 33.1521 210.362 30.1089C210.362 27.0657 207.902 24.5956 204.871 24.5956Z" fill="#4E554F"/>
<g opacity="0.5">
<path d="M155.854 49.7725H138.216C137.17 49.7725 136.318 48.9168 136.318 47.8675V41.9829C136.318 40.9335 137.162 40.0779 138.216 40.0779H155.854C156.899 40.0779 157.752 40.9335 157.752 41.9829V47.8675C157.752 48.9168 156.899 49.7725 155.854 49.7725Z" fill="#4E554F"/>
<path d="M178.767 49.7725H161.128C160.083 49.7725 159.231 48.9168 159.231 47.8675V41.9829C159.231 40.9335 160.083 40.0779 161.128 40.0779H178.767C179.812 40.0779 180.664 40.9335 180.664 41.9829V47.8675C180.664 48.9168 179.812 49.7725 178.767 49.7725Z" fill="#4E554F"/>
<path d="M167.206 60.5729H149.567C148.522 60.5729 147.67 59.7173 147.67 58.6679V52.7914C147.67 51.7421 148.522 50.8864 149.567 50.8864H167.206C168.251 50.8864 169.103 51.7421 169.103 52.7914V58.676C169.103 59.7254 168.259 60.5729 167.206 60.5729Z" fill="#4E554F"/>
</g>
<g opacity="0.5">
<path d="M467.378 138.945H449.739C448.694 138.945 447.842 138.089 447.842 137.04V131.155C447.842 130.106 448.694 129.25 449.739 129.25H467.378C468.423 129.25 469.275 130.106 469.275 131.155V137.04C469.275 138.097 468.423 138.945 467.378 138.945Z" fill="#4E554F"/>
<path d="M490.291 138.945H472.652C471.607 138.945 470.755 138.089 470.755 137.04V131.155C470.755 130.106 471.607 129.25 472.652 129.25H490.291C491.336 129.25 492.188 130.106 492.188 131.155V137.04C492.188 138.097 491.336 138.945 490.291 138.945Z" fill="#4E554F"/>
<path d="M478.738 149.753H461.099C460.054 149.753 459.202 148.898 459.202 147.848V141.964C459.202 140.914 460.054 140.059 461.099 140.059H478.738C479.783 140.059 480.635 140.914 480.635 141.964V147.848C480.627 148.898 479.783 149.753 478.738 149.753Z" fill="#4E554F"/>
</g>
<g opacity="0.5">
<path d="M231.49 40.0456H274.711V129.961H231.49C228.427 129.961 225.935 127.458 225.935 124.383V45.6154C225.935 42.5399 228.427 40.0456 231.49 40.0456Z" fill="#00A411"/>
<path d="M338.352 40.0456H276.11V129.961H338.352V40.0456Z" fill="#00A411"/>
<path d="M390.472 45.6154V124.383C390.472 127.458 387.988 129.961 384.917 129.961H339.75V40.0456H384.917C387.988 40.0456 390.472 42.5399 390.472 45.6154Z" fill="#00A411"/>
</g>
<g opacity="0.2">
<path d="M283.137 54.6612L281.699 71.4453L297.478 72.8081L298.916 56.024L283.137 54.6612Z" fill="#00A411"/>
</g>
<path d="M282.319 54.2059L280.962 70.0491L296.741 71.4119L298.098 55.5687L282.319 54.2059Z" fill="#EAFAF2"/>
<g opacity="0.5">
<path d="M291.856 51.1392L289.221 50.9116L288.759 56.3079L291.394 56.5355L291.856 51.1392Z" fill="#EAFAF2"/>
</g>
<path d="M330.753 83.6855L314.974 85.0483L316.412 101.832L332.191 100.47L330.753 83.6855Z" fill="#00A411"/>
<path d="M331.565 83.2327L315.786 84.5955L317.143 100.439L332.922 99.0759L331.565 83.2327Z" fill="#EAFAF2"/>
<path d="M322.506 85.586L325.141 85.3581L324.678 79.9618L322.043 80.1896L322.506 85.586Z" fill="#EAFAF2"/>
<g opacity="0.2">
<path d="M239.239 100.925L237.801 117.709L253.581 119.072L255.019 102.287L239.239 100.925Z" fill="#00A411"/>
</g>
<path d="M238.417 100.467L237.06 116.311L252.839 117.673L254.196 101.83L238.417 100.467Z" fill="#EAFAF2"/>
<g opacity="0.5">
<path d="M247.962 97.4094L245.327 97.1818L244.864 102.578L247.5 102.806L247.962 97.4094Z" fill="#EAFAF2"/>
</g>
<g opacity="0.2">
<path d="M365.661 52.5357L364.223 69.3198L380.003 70.6826L381.441 53.8985L365.661 52.5357Z" fill="#00A411"/>
</g>
<path d="M364.841 52.0713L363.483 67.9145L379.263 69.2773L380.62 53.4341L364.841 52.0713Z" fill="#EAFAF2"/>
<path d="M374.388 49.0137L371.753 48.7861L371.291 54.1824L373.926 54.41L374.388 49.0137Z" fill="#EAFAF2"/>
<path d="M265.626 50.3779H236.836C236.338 50.3779 235.928 49.9743 235.928 49.4657C235.928 48.9653 236.33 48.5536 236.836 48.5536H265.626C266.124 48.5536 266.534 48.9572 266.534 49.4657C266.534 49.9743 266.124 50.3779 265.626 50.3779Z" fill="#00A411"/>
<path d="M265.626 55.6247H236.836C236.338 55.6247 235.928 55.2211 235.928 54.7126C235.928 54.2121 236.33 53.8005 236.836 53.8005H265.626C266.124 53.8005 266.534 54.2041 266.534 54.7126C266.534 55.2211 266.124 55.6247 265.626 55.6247Z" fill="#00A411"/>
<path d="M265.626 60.8797H236.836C236.338 60.8797 235.928 60.4761 235.928 59.9675C235.928 59.4671 236.33 59.0554 236.836 59.0554H265.626C266.124 59.0554 266.534 59.459 266.534 59.9675C266.534 60.468 266.124 60.8797 265.626 60.8797Z" fill="#00A411"/>
<path d="M265.626 66.1265H236.836C236.338 66.1265 235.928 65.7229 235.928 65.2144C235.928 64.7139 236.33 64.3022 236.836 64.3022H265.626C266.124 64.3022 266.534 64.7058 266.534 65.2144C266.534 65.7149 266.124 66.1265 265.626 66.1265Z" fill="#00A411"/>
<path d="M265.626 71.3734H236.836C236.338 71.3734 235.928 70.9698 235.928 70.4612C235.928 69.9608 236.33 69.5491 236.836 69.5491H265.626C266.124 69.5491 266.534 69.9527 266.534 70.4612C266.534 70.9698 266.124 71.3734 265.626 71.3734Z" fill="#00A411"/>
<path d="M265.626 76.6202H236.836C236.338 76.6202 235.928 76.2166 235.928 75.7081C235.928 75.2076 236.33 74.7959 236.836 74.7959H265.626C266.124 74.7959 266.534 75.1995 266.534 75.7081C266.534 76.2166 266.124 76.6202 265.626 76.6202Z" fill="#00A411"/>
<path d="M379.506 87.2673H350.716C350.218 87.2673 349.808 86.8637 349.808 86.3552C349.808 85.8547 350.21 85.443 350.716 85.443H379.506C380.004 85.443 380.414 85.8466 380.414 86.3552C380.414 86.8556 380.004 87.2673 379.506 87.2673Z" fill="#00A411"/>
<path d="M379.506 92.5142H350.716C350.218 92.5142 349.808 92.1106 349.808 91.602C349.808 91.1016 350.21 90.6899 350.716 90.6899H379.506C380.004 90.6899 380.414 91.0935 380.414 91.602C380.414 92.1106 380.004 92.5142 379.506 92.5142Z" fill="#00A411"/>
<path d="M379.506 97.761H350.716C350.218 97.761 349.808 97.3574 349.808 96.8489C349.808 96.3484 350.21 95.9367 350.716 95.9367H379.506C380.004 95.9367 380.414 96.3403 380.414 96.8489C380.414 97.3574 380.004 97.761 379.506 97.761Z" fill="#00A411"/>
<path d="M379.506 103.008H350.716C350.218 103.008 349.808 102.604 349.808 102.096C349.808 101.595 350.21 101.184 350.716 101.184H379.506C380.004 101.184 380.414 101.587 380.414 102.096C380.414 102.604 380.004 103.008 379.506 103.008Z" fill="#00A411"/>
<path d="M379.506 108.263H350.716C350.218 108.263 349.808 107.859 349.808 107.351C349.808 106.85 350.21 106.439 350.716 106.439H379.506C380.004 106.439 380.414 106.842 380.414 107.351C380.414 107.851 380.004 108.263 379.506 108.263Z" fill="#00A411"/>
<path d="M379.506 113.51H350.716C350.218 113.51 349.808 113.106 349.808 112.598C349.808 112.097 350.21 111.685 350.716 111.685H379.506C380.004 111.685 380.414 112.089 380.414 112.598C380.414 113.106 380.004 113.51 379.506 113.51Z" fill="#00A411"/>
<g opacity="0.5">
<path d="M43.3732 71.6075C32.3189 71.6075 23.3307 62.5829 23.3307 51.4838C23.3307 40.3846 32.3189 31.3601 43.3732 31.3601C54.4276 31.3601 63.4158 40.3846 63.4158 51.4838C63.4077 62.5829 54.4195 71.6075 43.3732 71.6075Z" fill="#4E554F"/>
</g>
<path d="M43.3732 67.4181C52.138 67.4181 59.2432 60.284 59.2432 51.4838C59.2432 42.6835 52.138 35.5495 43.3732 35.5495C34.6084 35.5495 27.5032 42.6835 27.5032 51.4838C27.5032 60.284 34.6084 67.4181 43.3732 67.4181Z" fill="#EAFAF2"/>
<path d="M43.5742 39.6824H43.1642C43.0677 39.6824 42.9954 39.6017 42.9954 39.5129V36.8652C42.9954 36.7683 43.0758 36.6957 43.1642 36.6957H43.5742C43.6707 36.6957 43.743 36.7764 43.743 36.8652V39.5129C43.7511 39.6097 43.6707 39.6824 43.5742 39.6824Z" fill="#4E554F"/>
<path d="M35.2051 42.9919L34.9156 43.2825C34.8513 43.3471 34.7388 43.3471 34.6745 43.2825L32.8093 41.4098C32.745 41.3452 32.745 41.2322 32.8093 41.1676L33.0987 40.877C33.163 40.8125 33.2756 40.8125 33.3399 40.877L35.2051 42.7498C35.2694 42.8224 35.2694 42.9273 35.2051 42.9919Z" fill="#4E554F"/>
<path d="M31.6195 51.282V51.6936C31.6195 51.7905 31.5391 51.8632 31.4506 51.8632H28.8137C28.7172 51.8632 28.6448 51.7824 28.6448 51.6936V51.282C28.6448 51.1851 28.7252 51.1125 28.8137 51.1125H31.4506C31.5391 51.1044 31.6195 51.1851 31.6195 51.282Z" fill="#4E554F"/>
<path d="M35.0443 59.8142L35.0765 59.8464C35.2131 59.9837 35.2131 60.2178 35.0765 60.355L33.4766 61.9613C33.3399 62.0986 33.1068 62.0986 32.9701 61.9613L32.938 61.929C32.8013 61.7918 32.8013 61.5577 32.938 61.4205L34.5378 59.8142C34.6825 59.6769 34.9076 59.6769 35.0443 59.8142Z" fill="#4E554F"/>
<path d="M43.1642 63.2852H43.5742C43.6707 63.2852 43.743 63.3659 43.743 63.4547V66.1023C43.743 66.1992 43.6626 66.2718 43.5742 66.2718H43.1642C43.0677 66.2718 42.9954 66.1911 42.9954 66.1023V63.4547C42.9954 63.3659 43.0677 63.2852 43.1642 63.2852Z" fill="#4E554F"/>
<path d="M51.5333 59.9756L51.8228 59.685C51.8871 59.6204 51.9996 59.6204 52.064 59.685L53.9291 61.5577C53.9934 61.6223 53.9934 61.7353 53.9291 61.7999L53.6397 62.0905C53.5754 62.1551 53.4628 62.1551 53.3985 62.0905L51.5333 60.2178C51.469 60.1532 51.469 60.0402 51.5333 59.9756Z" fill="#4E554F"/>
<path d="M55.119 51.6936V51.282C55.119 51.1851 55.1994 51.1124 55.2878 51.1124H57.9248C58.0212 51.1124 58.0936 51.1932 58.0936 51.282V51.6936C58.0936 51.7905 58.0132 51.8632 57.9248 51.8632H55.2878C55.1994 51.8632 55.119 51.7905 55.119 51.6936Z" fill="#4E554F"/>
<path d="M51.6942 43.1534L51.662 43.1211C51.5253 42.9839 51.5253 42.7498 51.662 42.6125L53.2619 41.0062C53.3985 40.869 53.6317 40.869 53.7684 41.0062L53.8005 41.0385C53.9372 41.1757 53.9372 41.4098 53.8005 41.547L52.2007 43.1534C52.0559 43.2987 51.8308 43.2987 51.6942 43.1534Z" fill="#4E554F"/>
<path d="M51.7183 51.7501C51.6861 51.7824 51.6459 51.7986 51.6057 51.7986L43.4536 51.7098C43.3652 51.7098 43.2928 51.6371 43.2928 51.5483V42.4269C43.2928 42.3381 43.3652 42.2654 43.4536 42.2654C43.5421 42.2654 43.6144 42.3381 43.6144 42.4269V51.3869L51.6138 51.4757C51.7022 51.4757 51.7746 51.5483 51.7746 51.6371C51.7585 51.6775 51.7424 51.7179 51.7183 51.7501Z" fill="#4E554F"/>
<path d="M250.504 343.992C384.426 343.992 492.992 339.814 492.992 334.661C492.992 329.507 384.426 325.329 250.504 325.329C116.581 325.329 8.01538 329.507 8.01538 334.661C8.01538 339.814 116.581 343.992 250.504 343.992Z" fill="#F6F6F6"/>
<g opacity="0.5">
<path d="M34.9157 287.592L28.4036 291.725L36.2181 282.854C36.6602 280.319 36.7406 277.51 36.2502 274.451L30.6386 278.011L35.7839 272.167C35.2131 269.858 34.3127 267.42 32.9862 264.877C32.9862 264.877 30.0598 266.879 27.7605 271.351L28.6931 273.991L27.1736 272.586C24.8341 277.898 23.604 286.155 27.9615 297.965C27.9615 297.957 32.4073 294.179 34.9157 287.592Z" fill="#F6F6F6"/>
</g>
<g opacity="0.5">
<path d="M23.1297 318.67L34.176 315.554L16.6016 315.393C13.3697 313.358 10.1861 310.646 7.29988 307.054L16.8106 304.366L5.24176 304.261C3.26403 301.323 1.47926 297.892 -0.00805664 293.888C-0.00805664 293.888 5.12116 292.621 12.3487 294.534L14.3264 298.199L14.2943 295.107C22.4785 297.812 32.8173 304.665 41.492 321.285C41.492 321.277 32.8977 322.456 23.1297 318.67Z" fill="#F6F6F6"/>
</g>
<g opacity="0.5">
<path d="M54.3311 311.13L44.137 316.418L56.8716 304.261C57.8524 300.556 58.3428 296.391 58.0052 291.79L49.226 296.342L57.6112 288.343C57.0646 284.84 56.0355 281.11 54.3954 277.163C54.3954 277.163 49.7888 279.746 45.8012 286.099L46.8463 290.135L44.7721 287.851C40.6237 295.438 37.7214 307.53 42.6738 325.62C42.6738 325.612 49.7566 320.591 54.3311 311.13Z" fill="#F6F6F6"/>
</g>
<path d="M44.756 332.231C44.7078 332.247 44.6596 332.263 44.6113 332.271C44.2737 332.32 43.9521 332.086 43.9039 331.739C41.2588 313.471 18.0005 283.589 17.7673 283.282C17.5583 283.007 17.5985 282.62 17.8719 282.402C18.1452 282.192 18.5311 282.232 18.7482 282.507C18.8044 282.58 24.7296 290.175 30.9039 299.943C39.2168 313.1 44.0084 323.731 45.1419 331.553C45.1821 331.852 45.0133 332.126 44.756 332.231Z" fill="#F6F6F6"/>
<g opacity="0.5">
<path d="M324.644 287.592L331.156 291.725L323.342 282.854C322.9 280.319 322.819 277.51 323.31 274.451L328.913 278.011L323.768 272.167C324.339 269.858 325.239 267.42 326.566 264.877C326.566 264.877 329.492 266.879 331.791 271.351L330.859 273.991L332.378 272.586C334.718 277.898 335.948 286.155 331.59 297.965C331.59 297.957 327.153 294.179 324.644 287.592Z" fill="#F6F6F6"/>
</g>
<g opacity="0.5">
<path d="M336.422 318.298L325.376 315.183L342.95 315.021C346.182 312.987 349.366 310.275 352.252 306.683L342.741 303.995L354.31 303.89C356.288 300.952 358.073 297.521 359.56 293.517C359.56 293.517 354.439 292.25 347.203 294.163L345.225 297.828L345.258 294.736C337.073 297.44 326.734 304.293 318.06 320.914C318.068 320.906 326.654 322.084 336.422 318.298Z" fill="#F6F6F6"/>
</g>
<g opacity="0.5">
<path d="M304.955 308.741L315.632 312.955L301.724 302.17C300.373 298.586 299.464 294.494 299.328 289.885L308.525 293.509L299.368 286.414C299.561 282.878 300.204 279.06 301.426 274.959C301.426 274.959 306.274 277.058 310.889 282.967L310.262 287.084L312.095 284.598C316.999 291.717 321.115 303.446 318.036 321.947C318.028 321.947 310.471 317.677 304.955 308.741Z" fill="#F6F6F6"/>
</g>
<path d="M314.796 332.231C314.844 332.247 314.892 332.263 314.941 332.271C315.278 332.32 315.6 332.086 315.648 331.739C318.293 313.471 341.551 283.589 341.785 283.282C341.994 283.007 341.953 282.62 341.68 282.402C341.407 282.192 341.021 282.232 340.804 282.507C340.747 282.58 334.822 290.175 328.648 299.943C320.335 313.1 315.543 323.731 314.41 331.553C314.378 331.852 314.539 332.126 314.796 332.231Z" fill="#F6F6F6"/>
<path d="M82.7509 302.687L77.5011 325.87L67.4678 324.829L69.1963 302.687H82.7509Z" fill="#9E9E9E"/>
<path d="M59.3398 335.395H80.4194C80.4194 335.395 79.7119 324.377 78.7311 321.761C77.7583 319.138 76.5042 324.385 76.5042 324.385C76.5042 324.385 74.5345 320.292 71.1096 320.058C69.7751 319.969 68.4405 320.268 67.8536 321.624C67.5964 321.083 67.2346 320.559 66.8085 320.704C66.0126 320.986 65.7151 326.217 65.7071 326.338C64.7986 327.291 63.5525 328.381 62.4993 328.526C60.0392 328.873 58.0937 331.521 59.3398 335.395Z" fill="#0FA720"/>
<path d="M73.2321 324.845C71.7287 322.964 69.2204 322.512 67.2025 323.86C66.9291 324.038 67.1864 324.482 67.4597 324.304C69.3008 323.077 71.5116 323.505 72.8703 325.208C73.0713 325.467 73.4331 325.103 73.2321 324.845Z" fill="white"/>
<path d="M72.814 326.524C71.3106 324.643 68.8023 324.191 66.7844 325.539C66.511 325.717 66.7683 326.161 67.0416 325.983C68.8827 324.756 71.0936 325.184 72.4522 326.887C72.6613 327.145 73.023 326.782 72.814 326.524Z" fill="white"/>
<path d="M71.9297 328.518C70.6353 326.685 68.3923 326.08 66.5271 327.476C66.2698 327.67 66.5191 328.114 66.7844 327.92C68.4084 326.702 70.3459 327.162 71.4875 328.776C71.6804 329.042 72.1226 328.784 71.9297 328.518Z" fill="white"/>
<path d="M79.302 325.095C77.5252 327.226 77.6217 329.995 77.9192 332.61C77.9594 332.933 78.4658 332.941 78.4256 332.61C78.1443 330.164 77.9835 327.476 79.6557 325.458C79.8647 325.208 79.511 324.845 79.302 325.095Z" fill="#1C2F35"/>
<path d="M79.9451 332.521C73.2481 332.594 66.5512 332.659 59.8623 332.731C59.5327 332.731 59.5327 333.248 59.8623 333.24C66.5593 333.167 73.2562 333.103 79.9451 333.03C80.2747 333.03 80.2747 332.521 79.9451 332.521Z" fill="#1C2F35"/>
<path d="M114.853 166.228C114.853 166.228 103.63 225.001 99.6178 235.253C98.1305 239.063 87.5103 310.557 87.5103 310.557L63.0299 310.38C63.0299 310.38 67.4999 238.457 69.0354 228.012C71.4151 211.852 74.8561 165.889 74.8561 165.889L114.853 166.228Z" fill="#1C2F35"/>
<path d="M79.5271 235.56C76.046 237.005 72.0664 236.665 68.8506 234.688C68.5049 234.478 68.8184 233.929 69.1641 234.147C72.2433 236.052 76.0138 236.335 79.3582 234.954C79.7361 234.793 79.8969 235.406 79.5271 235.56Z" fill="#44584F"/>
<path d="M84.399 305.593C84.6161 305.593 84.801 305.432 84.8251 305.214C84.9055 304.608 92.5591 244.302 94.6414 236.197C96.7317 228.069 105.117 195.91 105.205 195.587C105.27 195.353 105.125 195.118 104.9 195.054C104.667 194.989 104.434 195.135 104.369 195.361C104.281 195.684 95.8955 227.843 93.8053 235.971C91.707 244.124 84.2865 302.606 83.9729 305.093C83.9408 305.335 84.1096 305.545 84.3508 305.577C84.3588 305.593 84.3829 305.593 84.399 305.593Z" fill="#44584F"/>
<path d="M61.8321 304.164L90.3241 304.705L89.3433 312.002L61.0683 311.34L61.8321 304.164Z" fill="#44584F"/>
<path d="M116.549 301.299L117.876 323.997L127.507 324.764L131.229 302.453L116.549 301.299Z" fill="#DD6966"/>
<path d="M125.288 322.528C125.288 322.528 126.751 320.712 128.6 321.334C130.457 321.955 132.885 324.998 132.885 324.998C132.885 324.998 142.943 328.235 145.66 328.405C148.378 328.574 150.749 330.108 151.77 335.395H118.84C118.84 335.395 117.546 323.465 117.345 321.422C117.144 319.38 120.368 321.931 120.368 321.931L125.288 322.528Z" fill="#0FA720"/>
<path d="M118.004 325.951C120.488 327.363 121.927 330.181 120.681 332.933C120.545 333.232 120.987 333.49 121.124 333.191C122.482 330.181 121.011 327.073 118.261 325.515C117.972 325.345 117.715 325.789 118.004 325.951Z" fill="#1C2F35"/>
<path d="M118.913 333.49C127.563 333.579 136.206 333.668 144.856 333.765C146.834 333.789 148.812 333.805 150.789 333.829C151.119 333.829 151.119 333.321 150.789 333.321C142.139 333.232 133.496 333.143 124.846 333.046C122.868 333.022 120.89 333.006 118.913 332.982C118.583 332.974 118.583 333.49 118.913 333.49Z" fill="#1C2F35"/>
<path d="M131.72 327.073C132.861 325.458 134.799 324.998 136.423 326.217C136.688 326.411 136.937 325.967 136.68 325.773C134.815 324.377 132.572 324.982 131.277 326.815C131.085 327.089 131.527 327.339 131.72 327.073Z" fill="white"/>
<path d="M134.558 327.937C135.699 326.322 137.637 325.862 139.261 327.081C139.526 327.275 139.775 326.831 139.518 326.637C137.653 325.24 135.41 325.846 134.115 327.678C133.922 327.945 134.365 328.203 134.558 327.937Z" fill="white"/>
<path d="M137.484 328.792C138.626 327.178 140.563 326.718 142.187 327.937C142.452 328.13 142.702 327.686 142.444 327.493C140.579 326.096 138.336 326.702 137.042 328.534C136.857 328.808 137.299 329.059 137.484 328.792Z" fill="white"/>
<path d="M134.944 158.318L144.052 230.571L136.6 310.46H109.506L113.615 233.477L104.787 167.028L134.944 158.318Z" fill="#1C2F35"/>
<path d="M143.481 231.507C139.494 233.913 134.831 234.817 130.24 234.099C129.846 234.034 130.015 233.429 130.409 233.493C134.831 234.187 139.341 233.283 143.168 230.967C143.514 230.757 143.827 231.298 143.481 231.507Z" fill="#44584F"/>
<path d="M137.275 183.317C130.859 180.322 127.282 173.396 128.448 166.398C128.512 166.002 129.115 166.172 129.051 166.567C127.933 173.3 131.446 179.903 137.597 182.776C137.958 182.946 137.637 183.487 137.275 183.317Z" fill="#44584F"/>
<path d="M85.5486 170.224C85.8059 177.998 81.1349 185.529 74.0601 188.709C73.6984 188.871 73.3768 188.33 73.7466 188.168C80.6284 185.077 85.1708 177.804 84.9296 170.224C84.9055 169.821 85.5326 169.821 85.5486 170.224Z" fill="#44584F"/>
<path d="M114.853 305.593C115.078 305.593 115.271 305.415 115.287 305.181L119.098 231.265C119.098 231.233 119.098 231.201 119.09 231.168L109.514 173.437C109.474 173.203 109.257 173.041 109.016 173.082C108.783 173.122 108.622 173.348 108.662 173.582L118.229 231.265L114.419 305.133C114.403 305.375 114.587 305.577 114.829 305.593C114.837 305.593 114.845 305.593 114.853 305.593Z" fill="#44584F"/>
<path d="M109.305 186.207C110.383 186.207 111.171 185.892 111.235 185.868C111.46 185.779 111.565 185.521 111.468 185.303C111.38 185.085 111.122 184.972 110.905 185.069C110.801 185.109 108.365 186.07 106.307 184.148C104.522 182.486 102.962 171.968 102.512 168.061C102.488 167.819 102.271 167.649 102.03 167.681C101.788 167.706 101.62 167.924 101.652 168.166C101.821 169.635 103.372 182.607 105.72 184.794C106.934 185.916 108.252 186.207 109.305 186.207Z" fill="#44584F"/>
<path d="M108.349 304.996L138.674 304.164L138.4 311.09L108.268 311.792L108.349 304.996Z" fill="#44584F"/>
<path d="M119.331 97.5108C119.331 97.5108 142.187 106.778 153.852 106.689C165.518 106.592 192.659 77.048 192.659 77.048L190.521 70.7357C190.521 70.7357 155.79 89.9876 153.844 90.4558C151.899 90.924 122.177 70.655 122.177 70.655C122.177 70.655 115.817 88.3974 119.331 97.5108Z" fill="#9E9E9E"/>
<path d="M182.103 75.3771C182.103 75.3771 182.449 81.302 186.372 83.5461C186.372 83.5461 185.343 86.0161 183.14 86.7103C183.14 86.7103 179.129 82.5048 178.429 77.3951C178.429 77.3951 179.539 75.7323 182.103 75.3771Z" fill="#1C2F35"/>
<path d="M153.619 90.7222C153.266 92.716 152.687 94.629 151.859 96.4776C151.69 96.865 152.269 97.1798 152.438 96.7924C153.282 94.8874 153.893 92.9258 154.254 90.8755C154.335 90.4639 153.692 90.3024 153.619 90.7222Z" fill="#B9ADAB"/>
<path d="M153.523 91.8684C154.335 93.5635 154.874 95.2667 155.171 97.1233C155.235 97.535 155.903 97.5189 155.83 97.0991C155.509 95.1295 154.946 93.3133 154.078 91.5132C153.901 91.1258 153.338 91.489 153.523 91.8684Z" fill="#B9ADAB"/>
<path d="M111.203 91.0773C115.552 96.8166 123.399 105.244 133.802 108.465L143.691 82.5694C143.691 82.5694 132.307 74.1744 122.731 71.2039C116.662 69.3231 114.507 72.2532 111.926 74.9977C107.77 79.4212 107.537 86.2502 111.203 91.0773Z" fill="#009E10"/>
<path d="M141.946 81.8025C138.505 90.141 135.064 98.4794 131.623 106.818C131.47 107.197 130.859 107.012 131.012 106.632C134.453 98.2938 137.894 89.9553 141.335 81.6169C141.496 81.2375 142.107 81.4231 141.946 81.8025Z" fill="white"/>
<path d="M183.952 76.935C182.891 74.2147 183.8 71.107 186.187 69.428C186.823 68.984 187.578 68.5159 188.479 68.0477C190.183 67.1678 194.131 64.9399 195.618 64.0278C197.105 63.1237 197.998 62.2196 198.488 63.3901C198.978 64.5605 193.994 68.758 193.994 68.758C193.994 68.758 203.673 66.1992 205.056 67.6683C206.439 69.1374 202.998 69.6621 202.998 69.6621C202.998 69.6621 207.203 69.4684 207.428 70.7195C207.653 71.9707 203.304 72.334 203.304 72.334C203.304 72.334 206.897 72.4308 207.235 73.4398C207.573 74.4488 204.839 74.7798 203.416 74.8444C203.416 74.8444 206.745 75.2964 206.72 76.4265C206.696 77.5647 203.617 76.9028 201.607 76.9431C199.597 76.9835 194.685 77.2176 192.965 79.0822C192.281 79.8249 191.445 80.2446 190.585 80.4625C187.819 81.1487 184.99 79.5908 183.952 76.935Z" fill="#9E9E9E"/>
<path d="M203.288 69.8962C201.559 69.7186 199.847 69.8397 198.158 70.2675C197.845 70.3482 197.732 69.8558 198.046 69.7832C199.774 69.3473 201.535 69.2181 203.312 69.3957C203.633 69.428 203.609 69.9285 203.288 69.8962Z" fill="#B9ADAB"/>
<path d="M203.818 72.5277C202.226 72.455 200.626 72.455 199.091 72.9313C198.785 73.0281 198.673 72.5358 198.978 72.447C200.554 71.9626 202.21 71.9626 203.842 72.0353C204.156 72.0434 204.14 72.5438 203.818 72.5277Z" fill="#B9ADAB"/>
<path d="M203.73 75.143C202.283 74.9332 200.852 74.9816 199.421 75.3126C199.107 75.3852 198.994 74.8928 199.308 74.8282C200.779 74.4892 202.258 74.4327 203.754 74.6506C204.059 74.691 204.043 75.1915 203.73 75.143Z" fill="#B9ADAB"/>
<path d="M194.106 68.863C192.852 70.2756 191.301 71.3007 189.532 71.9304C189.226 72.0353 189.122 71.551 189.419 71.446C191.108 70.8487 192.579 69.8397 193.769 68.4997C193.986 68.2495 194.315 68.6208 194.106 68.863Z" fill="#B9ADAB"/>
<path d="M192.933 70.6307C193.005 73.5528 191.397 76.2973 188.84 77.6696C188.559 77.823 188.326 77.379 188.607 77.2256C191.027 75.926 192.507 73.351 192.434 70.6065C192.426 70.2917 192.925 70.3159 192.933 70.6307Z" fill="#B9ADAB"/>
<path d="M197.845 69.2827C199.276 71.1151 199.694 73.5125 198.93 75.7162C198.826 76.0229 198.351 75.8695 198.456 75.5628C199.155 73.5367 198.801 71.3088 197.483 69.6217C197.282 69.3715 197.652 69.0325 197.845 69.2827Z" fill="#B9ADAB"/>
<path d="M126.735 132.544L70.9247 142.101C70.9247 142.101 69.7992 136.071 68.9309 126.885C68.5852 123.212 68.2878 119.039 68.1189 114.543C67.9501 110.079 67.9099 105.3 68.0868 100.384V100.376C68.344 93.2891 69.0515 85.9193 70.4665 78.7997C71.391 74.1502 77.1071 70.5097 83.4905 67.4503C85.2512 66.6028 86.8912 65.8924 88.3625 65.2951C92.744 63.5192 95.598 62.8089 95.598 62.8089C95.598 62.8089 100.647 62.2761 108.317 64.5202C108.799 64.6574 109.281 64.8027 109.756 64.9561C118.028 67.5149 124.701 70.8164 124.42 73.1654C124.259 74.5215 125.312 81.5765 124.653 90.4074C124.291 95.1537 124.275 100.263 124.066 105.405C124.066 105.405 124.066 105.413 124.066 105.421C124.05 105.728 124.042 106.035 124.026 106.342C123.511 119.62 123.841 131.922 126.735 132.544Z" fill="#00A411"/>
<path d="M124.693 103.799C124.717 95.9932 124.749 88.1956 124.774 80.3899C124.774 80.0024 124.171 80.0024 124.171 80.3899C124.146 88.1956 124.114 95.9932 124.09 103.799C124.082 104.186 124.685 104.186 124.693 103.799Z" fill="#1C2F35"/>
<path d="M103.019 72.7698C95.9277 72.5519 90.702 67.8701 88.3625 65.3032C92.744 63.5273 95.5981 62.817 95.5981 62.817C95.5981 62.817 100.647 62.2842 108.317 64.5282C108.799 64.6655 109.281 64.8108 109.756 64.9641C110.198 67.9266 109.941 72.9797 103.019 72.7698Z" fill="white"/>
<path d="M89.1905 69.1697C92.8083 71.7366 96.6592 74.3278 101.089 75.1834C104.884 75.918 109.016 75.3045 112.007 72.7053C112.232 72.5035 111.886 72.1967 111.661 72.3905C108.686 74.9816 104.458 75.4659 100.719 74.6264C96.5628 73.6901 92.9369 71.2604 89.5121 68.8226C89.2548 68.645 88.9413 68.9921 89.1905 69.1697Z" fill="#1C2F35"/>
<path d="M68.9309 126.885C69.0434 130.3 69.0354 134.215 69.0354 138.251V139.849C69.0354 141.124 69.0434 142.408 69.0515 143.683C69.0676 146.04 69.0997 148.373 69.1882 150.617C69.1962 150.714 69.1962 150.811 69.1962 150.908C69.2685 152.829 69.3811 154.685 69.5419 156.413C70.0886 162.338 71.2222 166.882 73.5617 168.117C81.963 172.557 143.385 174.971 136.712 154.831C136.286 153.539 135.804 152.022 135.297 150.343C134.799 148.688 134.26 146.872 133.713 144.95C132.942 142.271 132.146 139.397 131.342 136.451C130.883 134.763 130.425 133.052 129.975 131.349C126.928 119.838 124.243 108.666 124.114 106.309C124.082 105.801 124.074 105.494 124.074 105.43C124.074 105.421 124.074 105.413 124.074 105.413L69.3007 100.869C69.3007 100.869 68.9309 106.616 68.8344 114.559C68.7701 118.296 68.7862 122.534 68.9309 126.885Z" fill="#00A411"/>
<path d="M119.749 128.621C113.928 138.17 104.819 145.572 94.3438 149.398C91.4094 150.472 88.3785 151.247 85.2913 151.739C84.9054 151.804 85.0743 152.385 85.4521 152.32C96.5949 150.544 106.998 144.837 114.603 136.483C116.726 134.15 118.623 131.615 120.263 128.919C120.472 128.596 119.95 128.29 119.749 128.621Z" fill="#1C2F35"/>
<path d="M125.682 148.704C116.71 151.061 107.448 152.118 98.1787 151.852C97.7928 151.844 97.7928 152.449 98.1787 152.457C107.505 152.724 116.822 151.65 125.843 149.285C126.221 149.188 126.06 148.607 125.682 148.704Z" fill="#1C2F35"/>
<path d="M86.8028 96.2919C86.8028 96.2919 85.83 123.664 87.6228 127.749C89.4156 131.833 128.512 135.337 128.512 135.337V142.101C128.512 142.101 92.1089 149.802 75.3867 142.747C58.3589 135.571 66.3904 92.4496 66.3904 92.4496L86.8028 96.2919Z" fill="#9E9E9E"/>
<path d="M124.564 136.967C123.447 139.356 124.605 142.166 126.944 143.368C128.182 144.006 129.477 144.813 130.297 145.725C132.258 147.913 133.979 151.053 135.281 151.876C137.203 153.095 136.752 150.674 136.656 150.383C136.029 148.51 134.726 146.081 134.726 146.081C134.726 146.081 138.095 149.778 138.746 151.634C139.397 153.499 141.062 154.096 141.448 152.014C141.833 149.931 138.963 145.08 137.806 143.958C137.806 143.958 140.467 145.701 141.431 148.187C142.396 150.682 143.071 151.44 143.908 152.127C144.744 152.805 145.934 150.988 144.503 147.542C143.071 144.095 141.665 143.134 140.266 141.98C140.266 141.98 141.665 142.432 143.755 143.643C145.845 144.862 146.729 147.832 148.169 147.937C149.64 148.042 148.474 144.668 147.003 143.094C145.532 141.52 144.591 140.252 142.091 139.106C139.59 137.968 137.154 136.959 135.498 136.636C133.834 136.313 128.078 134.384 125.883 135.458C125.304 135.732 124.878 136.289 124.564 136.967Z" fill="#9E9E9E"/>
<path d="M130.9 135.635C130.9 135.635 136.005 134.844 137.637 135.474C139.261 136.111 142.05 136.192 141.721 137.33C141.391 138.46 137.958 138.259 137.958 138.259L130.9 135.635Z" fill="#9E9E9E"/>
<path d="M87.4861 128.483C85.5004 128.855 83.6031 129.444 81.762 130.283C81.3761 130.461 81.0545 129.88 81.4485 129.702C83.3377 128.847 85.2914 128.225 87.3334 127.846C87.7434 127.757 87.9042 128.403 87.4861 128.483Z" fill="#B9ADAB"/>
<path d="M85.0904 128.79C83.4021 127.983 81.6977 127.458 79.8486 127.168C79.4306 127.103 79.4466 126.441 79.8727 126.506C81.8344 126.812 83.6513 127.377 85.4441 128.233C85.822 128.411 85.4683 128.976 85.0904 128.79Z" fill="#B9ADAB"/>
<path d="M69.7831 77.6292C66.0126 83.7721 60.9959 94.1528 61.7355 105.058L89.3513 105.018C89.3513 105.018 92.5993 93.4667 91.9159 83.425C91.4818 77.0561 88.4429 73.9564 84.9698 72.5277C79.3904 70.2271 72.9587 72.4631 69.7831 77.6292Z" fill="#009E10"/>
<path d="M90.2196 79.6715C91.6828 87.7678 91.6828 96.0659 90.2196 104.154C90.1473 104.534 90.7342 104.695 90.7985 104.316C92.2858 96.1143 92.2858 87.7113 90.7985 79.51C90.7261 79.1226 90.1473 79.284 90.2196 79.6715Z" fill="#1C2F35"/>
<path d="M89.48 102.193C80.4516 102.104 71.4232 102.007 62.3948 101.918C61.9848 101.91 62.0009 101.272 62.4109 101.28C71.4393 101.369 80.4677 101.466 89.4961 101.555C89.9061 101.555 89.89 102.193 89.48 102.193Z" fill="white"/>
<path d="M91.8838 65.7794C91.8838 65.7794 106.411 75.361 108.63 66.2072L106.532 59.8626L105.149 55.6812L104.176 52.7511L92.1491 51.2012C92.945 56.6822 92.7762 61.4851 91.8838 65.7794Z" fill="#9F9F9F"/>
<path d="M95.1398 55.5117C100.743 61.6465 105.527 62.1712 107.054 61.4609L105.141 55.6812L95.1398 55.5117Z" fill="#1C2F35"/>
<path d="M91.3934 49.385C91.3934 49.385 87.0118 51.6452 86.6018 49.3931C86.1918 47.141 87.6228 45.7041 87.6228 45.7041C87.6228 45.7041 84.1578 45.5023 84.9698 43.452C85.7898 41.4017 86.8028 41.1999 86.8028 41.1999C86.8028 41.1999 84.1497 34.8472 86.1918 32.5951C88.2338 30.343 90.8869 30.9564 90.8869 30.9564C90.8869 30.9564 91.2969 28.4945 93.7409 27.2675C96.193 26.0405 100.068 26.654 100.068 26.654C100.068 26.654 105.784 22.7633 109.458 25.4271C113.132 28.0909 109.868 35.0571 109.868 35.0571L91.3934 49.385Z" fill="#1C2F35"/>
<path d="M90.702 47.9724C90.7663 48.4567 90.8467 48.9007 90.9512 49.3124C91.2004 50.2729 91.5702 51.0963 92.1008 51.9196C92.8083 53.0094 93.7891 54.1072 95.1398 55.544C97.2622 57.8123 100.414 58.4015 103.356 58.0867C111.179 57.2311 111.291 51.7986 109.748 43.7911C108.791 38.8187 109.892 35.8723 108.429 34.0642C108.333 33.9835 108.236 33.9028 108.148 33.8301C105.873 31.9977 102.946 31.1744 100.044 31.4408C99.4811 31.4892 98.9505 31.5619 98.444 31.6426C98.3315 31.6587 98.2109 31.6749 98.0983 31.6991C98.0501 31.7071 98.0019 31.7152 97.9617 31.7233C97.833 31.7475 97.7044 31.7717 97.5838 31.7959C97.4954 31.8121 97.4069 31.8282 97.3185 31.8524C97.1095 31.8928 96.9165 31.9412 96.7236 31.9897C90.5653 33.5476 89.4398 37.5433 89.6327 41.3371C89.7533 43.9202 90.501 46.4064 90.702 47.9724Z" fill="#9F9F9F"/>
<path d="M109.868 34.6373C109.868 34.6373 109.804 37.8016 109.257 37.9146C108.711 38.0276 107.344 34.0642 106.339 34.1691C105.334 34.266 105.141 35.6625 103.654 35.8643C102.166 36.0661 102.367 34.0481 99.055 35.1459C95.7428 36.2437 99.0068 38.6491 96.804 40.756C94.6012 42.8628 97.4552 45.6719 95.2363 46.0835C93.0174 46.4952 89.2468 46.0351 88.8609 41.773C88.475 37.5029 91.9803 29.8021 101.346 30.1492C109.008 30.4237 109.868 34.6373 109.868 34.6373Z" fill="#1C2F35"/>
<path d="M104.401 42.1444C105.141 43.0081 105.889 43.8718 106.628 44.7274C106.741 44.8566 106.741 45.0503 106.612 45.1714C106.21 45.5427 105.856 45.9382 105.543 46.3903C105.318 46.7212 104.779 46.3903 105.012 46.0593C105.35 45.5589 105.736 45.123 106.178 44.7113C106.17 44.8566 106.17 45.0099 106.162 45.1552C105.422 44.2915 104.675 43.4278 103.935 42.5722C103.686 42.2654 104.136 41.8295 104.401 42.1444Z" fill="#1C2F35"/>
<path d="M102.85 43.5247C102.858 43.9525 102.6 44.2996 102.279 44.3077C101.957 44.3157 101.692 43.9686 101.692 43.5408C101.684 43.113 101.941 42.7659 102.263 42.7578C102.576 42.7578 102.842 43.0969 102.85 43.5247Z" fill="#1C2F35"/>
<path d="M107.971 43.0646C107.979 43.4924 107.722 43.8395 107.4 43.8476C107.078 43.8556 106.813 43.5085 106.813 43.0807C106.805 42.6529 107.062 42.3058 107.384 42.2977C107.698 42.2897 107.963 42.6368 107.971 43.0646Z" fill="#1C2F35"/>
<path d="M98.8219 46.3338C98.8781 46.7616 99.5856 47.028 100.406 46.923C101.226 46.8181 101.845 46.3822 101.796 45.9544C101.74 45.5266 101.033 45.2602 100.213 45.3651C99.3927 45.4701 98.7736 45.906 98.8219 46.3338Z" fill="#B9ADAB"/>
<path d="M110.109 45.8091C109.86 46.027 109.45 46.1965 108.976 46.2611C108.156 46.3661 107.448 46.1078 107.392 45.6719C107.336 45.244 107.963 44.8082 108.783 44.7032C109.233 44.6467 109.651 44.6951 109.949 44.8324L110.109 45.8091Z" fill="#B9ADAB"/>
<path d="M102.15 41.1999C101.644 41.0788 100.952 41.1999 100.808 41.7892C100.719 42.1524 100.422 42.435 100.028 42.3784C99.6901 42.33 99.3525 41.9587 99.4409 41.5955C99.7625 40.3039 101.033 39.5129 102.343 39.8277C102.705 39.9165 102.986 40.2151 102.93 40.6107C102.882 40.9578 102.512 41.2887 102.15 41.1999Z" fill="#1C2F35"/>
<path d="M107.947 41.0304C107.497 40.6107 107.03 40.4654 106.443 40.6995C105.623 41.0304 105.085 39.755 105.913 39.4241C106.926 39.0205 107.979 39.19 108.783 39.9326C109.434 40.538 108.598 41.6358 107.947 41.0304Z" fill="#1C2F35"/>
<path d="M93.7811 49.8128C92.6797 49.9743 91.731 49.7644 90.9512 49.3124C91.2004 50.2729 91.5702 51.0963 92.1008 51.9197C92.8244 51.4353 93.4113 50.7573 93.7811 49.8128Z" fill="#1C2F35"/>
<path d="M107.537 48.0451C107.537 48.0451 105.688 48.0773 102.046 48.1742C102.046 48.1742 102.777 52.0246 105.39 51.6694C107.609 51.3788 107.537 48.0451 107.537 48.0451Z" fill="white"/>
<path d="M105.969 53.1385C105.406 53.413 104.779 53.4937 104.249 53.1062C103.975 52.9125 104.297 52.5008 104.562 52.6946C104.94 52.969 105.382 52.8479 105.768 52.6623C106.066 52.517 106.267 53.0013 105.969 53.1385Z" fill="#B9ADAB"/>
<path d="M96.008 47.5607C96.2653 46.245 95.8553 44.8969 94.987 43.8799C93.8615 42.5641 91.8516 40.5784 90.2196 41.0223C87.8238 41.6762 87.8158 43.896 88.3383 46.0916C88.8609 48.2791 90.6859 51.0075 93.6685 50.1438C95.1719 49.7079 95.799 48.6343 96.008 47.5607Z" fill="#9F9F9F"/>
<path d="M93.0575 47.5365C93.0575 46.5921 92.9932 45.6073 92.535 44.7597C92.1249 44.0009 91.0879 42.9596 90.107 43.4278C89.7774 43.5812 89.4799 43.0969 89.8096 42.9435C90.7502 42.4915 91.7551 42.9516 92.4385 43.67C93.4193 44.7113 93.6203 46.1562 93.6203 47.5284C93.6203 47.8998 93.0575 47.9078 93.0575 47.5365Z" fill="#1C2F35"/>
<path d="M109.9 64.6009C111.034 69.1374 111.749 73.7789 112.023 78.4526C112.216 81.8025 112.73 86.2341 110.56 89.1078C108.534 91.7958 104.723 91.5778 102.19 89.7616C98.9827 87.461 97.3426 83.2474 95.8151 79.7522C93.7329 74.9735 92.0526 70.0415 90.3724 65.1094C90.2437 64.722 90.8547 64.5767 90.9834 64.9641C92.326 68.9114 93.6686 72.8667 95.2282 76.7413C96.6512 80.2769 98.1305 84.1676 100.478 87.2027C102.568 89.8988 107.022 92.1751 109.812 89.0432C112.111 86.4682 111.581 82.0043 111.412 78.8401C111.163 74.0856 110.431 69.3796 109.281 64.7623C109.193 64.3587 109.804 64.2054 109.9 64.6009Z" fill="white"/>
<path d="M468.19 94.2739C468.19 94.2739 469.653 93.8057 466.984 90.1813C464.307 86.557 458.446 81.0841 458.446 81.0841C458.446 81.0841 455.64 90.6657 468.19 94.2739Z" fill="#1C2F35"/>
<path d="M457.305 85.7094L466.188 72.3259L471.559 74.804L463.833 91.6908L457.305 85.7094Z" fill="#9E9E9E"/>
<path d="M465.248 72.229C465.248 72.229 465.207 69.2423 466.952 67.4907C468.688 65.7391 469.613 63.8825 470.996 62.6717C472.379 61.4609 472.033 63.9228 471.583 65.1902C471.132 66.4656 470.642 67.9105 471.647 68.088C472.652 68.2737 480.941 65.3193 482.307 65.7391C483.674 66.1507 482.484 67.0548 482.484 67.0548C482.484 67.0548 484.349 66.409 485.001 67.1275C485.652 67.8459 484.599 68.6127 484.599 68.6127C484.599 68.6127 485.869 68.2253 486.038 69.1536C486.207 70.0818 479.478 73.5125 479.767 74.0049C480.056 74.4973 483.007 71.3815 483.972 72.1241C484.928 72.8667 482.573 74.1905 480.852 75.4659C479.132 76.7413 476.913 77.5485 474.734 77.4032C472.555 77.2579 468.825 78.1701 467.386 76.0955C465.923 74.021 465.248 72.229 465.248 72.229Z" fill="#9E9E9E"/>
<path d="M484.583 68.3625C482.38 69.1455 480.201 70.0011 478.079 70.9294C477.829 71.0424 478.111 71.4218 478.36 71.3088C480.45 70.3967 482.589 69.5572 484.768 68.7822C485.017 68.6934 484.84 68.2656 484.583 68.3625Z" fill="#6B2636"/>
<path d="M482.348 67.0064C480.595 67.4423 478.947 68.0719 477.403 68.8872C477.162 69.0163 477.444 69.3957 477.685 69.2666C479.196 68.4674 480.812 67.854 482.525 67.4261C482.79 67.3616 482.621 66.9418 482.348 67.0064Z" fill="#6B2636"/>
<path d="M479.011 72.9394C478.585 71.1151 477.749 69.3957 476.519 67.8378C476.334 67.5957 475.964 67.8055 476.157 68.0477C477.331 69.541 478.151 71.1877 478.561 72.9313C478.625 73.2138 479.076 73.2219 479.011 72.9394Z" fill="#6B2636"/>
<path d="M475.474 70.5016C472.628 70.0092 470.152 71.1474 469.034 73.4641C468.922 73.7062 469.34 73.9242 469.46 73.6901C470.489 71.551 472.789 70.4693 475.418 70.9213C475.707 70.9778 475.771 70.5581 475.474 70.5016Z" fill="#6B2636"/>
<path d="M468.19 94.2739C468.19 94.2739 463.101 98.4714 457.393 107.916C456.324 109.692 455.166 111.266 453.968 112.614C449.458 117.683 444.313 119.556 440.502 116.779C439.931 116.359 439.384 115.842 438.878 115.205C437.366 113.316 435.638 109.869 433.982 106.043C430.412 97.7852 427.172 87.7597 427.172 87.7597L431.771 76.8705L438.444 72.8264L438.99 74.3278L441.386 82.4886L446.676 97.7287L458.43 81.0922C458.438 81.1406 458.454 81.181 458.462 81.2294C459.041 84.0223 460.207 86.6296 461.863 88.8575C463.527 91.0854 465.666 92.9501 468.19 94.2739Z" fill="#0FA720"/>
<path d="M453.968 112.614C449.458 117.683 444.313 119.556 440.502 116.779C442.906 114.607 448.18 110.604 452.883 112.113C453.309 112.242 453.671 112.412 453.968 112.614Z" fill="#467B5B"/>
<path d="M446.395 97.5512C444.811 100.465 443.549 103.541 442.624 106.737C442.528 107.084 443.058 107.23 443.155 106.882C444.063 103.734 445.302 100.707 446.869 97.8337C447.046 97.5189 446.564 97.2363 446.395 97.5512Z" fill="#467B5B"/>
<path d="M444.916 100.546C443.967 101.337 443.115 102.249 442.166 103.04C441.893 103.266 442.287 103.662 442.56 103.436C443.509 102.645 444.361 101.733 445.31 100.941C445.583 100.707 445.189 100.32 444.916 100.546Z" fill="#467B5B"/>
<path d="M359.528 95.8479C359.528 95.8479 357.96 95.3475 360.822 91.4648C363.692 87.5821 369.979 81.7137 369.979 81.7137C369.979 81.7137 372.97 91.9814 359.528 95.8479Z" fill="#1C2F35"/>
<path d="M371.185 86.67L361.666 72.3259L355.91 74.9816L364.191 93.0792L371.185 86.67Z" fill="#9E9E9E"/>
<path d="M361.907 72.4873C361.907 72.4873 362.02 69.6702 360.428 67.967C358.836 66.2718 358.008 64.4879 356.738 63.3094C355.468 62.1308 355.725 64.4637 356.119 65.6745C356.505 66.8853 356.939 68.2656 355.982 68.4109C355.026 68.5562 347.284 65.5534 345.981 65.9086C344.679 66.2638 345.78 67.1436 345.78 67.1436C345.78 67.1436 344.036 66.4817 343.408 67.1517C342.773 67.8136 343.746 68.5643 343.746 68.5643C343.746 68.5643 342.564 68.1607 342.371 69.0325C342.186 69.9043 348.449 73.3268 348.16 73.7789C347.87 74.239 345.169 71.2119 344.245 71.89C343.32 72.568 345.515 73.8757 347.099 75.1269C348.682 76.3781 350.757 77.1934 352.823 77.1207C354.881 77.0481 358.378 78.0006 359.793 76.0794C361.224 74.1582 361.907 72.4873 361.907 72.4873Z" fill="#9E9E9E"/>
<path d="M343.762 68.3141C345.82 69.1132 347.846 69.9769 349.832 70.9133C350.065 71.0263 349.792 71.3734 349.559 71.2684C347.605 70.3482 345.611 69.5007 343.585 68.7096C343.344 68.6208 343.521 68.2253 343.762 68.3141Z" fill="#6B2636"/>
<path d="M345.909 67.1032C347.549 67.5634 349.084 68.201 350.523 69.0083C350.749 69.1374 350.475 69.4845 350.25 69.3634C348.843 68.5643 347.34 67.9427 345.732 67.4988C345.475 67.4261 345.652 67.0306 345.909 67.1032Z" fill="#6B2636"/>
<path d="M348.9 72.786C349.35 71.0828 350.186 69.4764 351.384 68.0396C351.569 67.8217 351.906 68.0235 351.721 68.2495C350.572 69.6298 349.76 71.1635 349.326 72.7941C349.261 73.0524 348.835 73.0524 348.9 72.786Z" fill="#6B2636"/>
<path d="M352.3 70.5823C354.993 70.1949 357.309 71.333 358.298 73.5528C358.402 73.7789 357.992 73.9807 357.896 73.7546C356.979 71.7043 354.841 70.6307 352.348 70.9859C352.067 71.0182 352.027 70.6227 352.3 70.5823Z" fill="#6B2636"/>
<path d="M359.528 95.8479C359.528 95.8479 364.987 100.352 371.097 110.466C372.246 112.363 373.476 114.059 374.763 115.503C379.594 120.936 385.11 122.946 389.194 119.967C389.805 119.523 390.392 118.958 390.93 118.28C392.546 116.254 394.395 112.565 396.172 108.457C399.999 99.6095 403.472 88.8575 403.472 88.8575L398.544 77.1853L394.934 68.6127L393.543 72.0999L389.113 83.1828L382.577 99.545L369.979 81.7137C369.971 81.7622 369.955 81.8106 369.947 81.8671C369.328 84.8618 368.074 87.6548 366.305 90.0441C364.52 92.4334 362.229 94.4272 359.528 95.8479Z" fill="#0FA720"/>
<path d="M374.763 115.503C379.594 120.936 385.11 122.946 389.194 119.967C386.613 117.643 380.969 113.348 375.928 114.963C375.47 115.108 375.084 115.294 374.763 115.503Z" fill="#467B5B"/>
<path d="M382.883 99.3593C384.587 102.483 385.938 105.777 386.926 109.199C387.031 109.57 386.46 109.724 386.356 109.361C385.383 105.986 384.056 102.741 382.376 99.658C382.191 99.327 382.698 99.0283 382.883 99.3593Z" fill="#467B5B"/>
<path d="M384.466 102.572C385.487 103.42 386.396 104.396 387.417 105.244C387.714 105.486 387.288 105.906 386.999 105.664C385.978 104.816 385.069 103.839 384.048 102.992C383.759 102.75 384.177 102.33 384.466 102.572Z" fill="#467B5B"/>
<path d="M368.026 303.212L368.532 323.828L375.679 323.957L380.31 303.212H368.026Z" fill="#9E9E9E"/>
<path d="M380.615 303.64C380.615 303.64 381.411 305.553 380.921 307.716C380.286 310.525 378.63 311.526 378.63 311.526L368.275 310.88C368.275 310.88 364.81 307.676 367.543 302.639L380.615 303.64Z" fill="#4E554F"/>
<path d="M368.492 323.392C368.492 323.392 365.445 326.29 363.467 327.267C361.489 328.243 357.076 328.405 356.183 328.671C355.291 328.937 352.268 328.13 351.215 329.688C349.985 331.512 351.344 332.15 351.344 332.15C351.344 332.15 364.802 332.659 368.018 332.796C371.949 332.957 373.645 332.877 375.221 332.15C376.805 331.424 375.993 323.852 375.993 323.852L368.492 323.392Z" fill="#9E9E9E"/>
<path d="M375.88 331.125C375.88 331.125 378.228 335.048 375.88 335.169C375.374 335.193 350.733 335.169 350.733 335.169C350.733 335.169 349.117 333.74 350.733 331.553L375.88 331.125Z" fill="#9E9E9E"/>
<path d="M356.191 328.671C356.191 328.671 360.131 329.123 362.727 332.15H365.22C365.22 332.15 363.765 328.768 360.967 327.969C360.959 327.969 357.638 327.46 356.191 328.671Z" fill="#9E9E9E"/>
<path d="M414.422 303.212L414.261 324.877L421.392 325.24L426.77 304.35L414.422 303.212Z" fill="#9E9E9E"/>
<path d="M426.698 304.649C426.698 304.649 427.494 306.562 427.004 308.725C426.368 311.534 424.712 312.535 424.712 312.535L414.357 311.889C414.357 311.889 410.892 308.685 413.626 303.648L426.698 304.649Z" fill="#4E554F"/>
<path d="M421.657 324.191C421.657 324.191 422.365 328.3 423.153 328.792C423.94 329.285 425.822 328.792 426.312 332.513H410.016C410.016 332.513 411.214 329.688 412.002 328.994C412.782 328.3 413.77 328.042 413.77 328.042L414.261 324.199H421.657V324.191Z" fill="#9E9E9E"/>
<path d="M419.961 328.461C420.282 329.131 421.32 331.472 420.982 333.159H418.811C418.811 333.159 418.361 329.317 417.388 328.461H419.961Z" fill="#9E9E9E"/>
<path d="M424.318 329.188C424.318 329.188 423.153 326.855 421.279 326.629C419.398 326.411 412.894 324.918 412.002 328.986C412.002 328.994 418.16 329.486 424.318 329.188Z" fill="#9E9E9E"/>
<path d="M426.32 332.513C426.32 332.513 427.799 333.151 427.606 335.145H409.124C409.124 335.145 408.135 334.152 410.016 332.513H426.32Z" fill="#9E9E9E"/>
<path d="M398.881 109.304L399.018 110.063L399.468 112.662L400.336 117.643C416.954 124.068 430.822 115.6 430.822 115.6C430.485 114.858 430.292 113.792 430.179 112.67C430.018 111.048 430.034 109.296 430.067 108.222C430.083 107.577 430.115 107.173 430.115 107.173L398.881 109.304Z" fill="#9E9E9E"/>
<path d="M399.018 110.063L399.468 112.662C407.797 113.921 418.208 113.808 430.179 112.662C430.018 111.04 430.034 109.288 430.067 108.214L399.018 110.063Z" fill="#6B2636"/>
<path d="M432.953 120.04C432.953 120.04 441.338 128.766 441.732 142.109C442.271 160.231 437.383 229.368 436.538 242.59C435.726 255.336 433.403 285.138 432.326 298.804C432.02 302.736 428.636 305.706 424.72 305.488L413.706 304.883C409.727 304.665 406.672 301.258 406.873 297.263C408.368 267.598 413.939 156.34 413.61 147.154C413.224 136.555 413.996 123.64 413.996 123.64L432.953 120.04Z" fill="#00A411"/>
<path d="M428.354 217.979C424.294 219.65 419.72 219.488 415.764 217.591C415.419 217.43 415.724 216.913 416.062 217.075C419.881 218.907 424.278 219.004 428.193 217.397C428.547 217.26 428.7 217.833 428.354 217.979Z" fill="#4E554F"/>
<path d="M382.022 166.777C384.627 156.736 384.965 151.763 386.999 144.361C388.719 143.667 392.578 133.456 394.202 132.552C396.485 131.276 398.712 129.896 400.996 128.629C402.716 127.676 404.412 126.691 406.069 125.642C409.429 123.511 412.934 121.009 415.218 117.643C416.978 120.323 418.08 125.142 418.023 133.093L387.465 300.233C386.999 302.76 384.82 304.608 382.256 304.641C377.729 304.689 370.679 304.6 365.799 303.745C362.953 303.244 361.015 300.564 361.417 297.69C364.448 276.477 377.938 182.486 382.022 166.777Z" fill="#00A411"/>
<path d="M386.211 216.445C382.473 217.833 378.356 217.381 374.988 215.25C374.666 215.048 374.964 214.532 375.285 214.734C378.533 216.792 382.448 217.212 386.05 215.872C386.412 215.743 386.565 216.316 386.211 216.445Z" fill="#4E554F"/>
<path d="M411.436 154.374L383.55 301.872L384.135 301.983L412.02 154.485L411.436 154.374Z" fill="#4E554F"/>
<path d="M435.927 125.666C435.927 125.666 432.808 120.718 430.822 114.091C430.822 114.091 418.956 119.644 399.645 116.48C399.645 116.48 392.852 127.644 387.007 144.369C386.999 144.361 431.634 133.706 435.927 125.666Z" fill="#00A411"/>
<path d="M404.171 122.445C403.472 131.898 396.26 139.687 387.682 142.957C387.328 143.094 387.168 142.521 387.521 142.384C395.834 139.219 402.893 131.615 403.576 122.445C403.608 122.066 404.195 122.058 404.171 122.445Z" fill="#4E554F"/>
<path d="M424.005 122.276C424.125 126.772 426.007 131.155 429.271 134.255C432.543 137.355 437.005 138.977 441.483 138.848C441.861 138.84 441.861 139.429 441.483 139.445C436.844 139.583 432.229 137.887 428.845 134.683C425.46 131.478 423.522 126.934 423.402 122.284C423.402 121.897 423.997 121.897 424.005 122.276Z" fill="#4E554F"/>
<path d="M415.925 135.789C415.338 142.997 414.558 150.189 413.971 157.398C413.939 157.777 413.344 157.777 413.377 157.398C413.963 150.189 414.743 142.997 415.33 135.789C415.362 135.409 415.957 135.401 415.925 135.789Z" fill="#4E554F"/>
<path d="M413.063 136.346C412.725 138.388 412.492 140.454 412.364 142.521C412.307 143.425 412.243 144.345 412.275 145.249C412.315 146.282 412.894 148.228 414.365 147.509C414.703 147.34 415.009 147.856 414.663 148.026C412.701 148.986 411.696 146.67 411.68 145.088C411.648 142.117 412.01 139.106 412.484 136.184C412.548 135.813 413.119 135.966 413.063 136.346Z" fill="#4E554F"/>
<path d="M431.859 119.693C430.042 121.517 427.004 121.784 424.6 122.219C421.529 122.776 418.433 123.22 415.314 123.406C409.349 123.769 403.198 123.22 397.659 120.847C397.306 120.694 397.611 120.185 397.957 120.331C403.279 122.615 409.204 123.14 414.936 122.833C417.943 122.671 420.926 122.268 423.884 121.743C426.296 121.315 429.608 121.105 431.433 119.273C431.715 118.999 432.133 119.418 431.859 119.693Z" fill="#4E554F"/>
<path d="M439.103 76.822C438.894 80.7774 436.908 85.6529 435.244 89.3822C434.488 91.0693 433.877 93.2407 433.387 95.5412C431.94 102.354 431.538 110.305 431.538 110.305C417.123 110.935 400.98 112.622 396.662 111.088C396.662 111.088 396.469 110.023 396.188 108.457C395.73 105.922 395.03 102.08 394.516 99.3916C393.776 95.5331 392.972 88.9463 392.811 82.2546C392.787 81.4231 392.779 80.5836 392.779 79.7441C392.779 77.04 393.045 74.4246 393.551 72.0918C394.451 67.9589 396.124 64.722 398.463 63.4385C399.669 62.7766 402.419 62.6475 405.578 62.7766C409.003 62.9058 412.894 63.3417 415.796 63.713C418.353 64.0439 420.13 64.3265 420.13 64.3265C420.13 64.3265 420.483 64.4879 421.111 64.7543C421.408 64.8834 421.77 65.0368 422.18 65.2144C425.042 66.4413 430.436 68.6612 435.268 70.1626C436.772 70.6307 437.768 71.4783 438.371 72.5923C438.99 73.7708 439.191 75.2238 439.103 76.822Z" fill="#00A411"/>
<path d="M419.68 59.5316C419.68 59.5316 420.998 55.0193 427.028 51.6533C433.057 48.2872 433.821 37.9953 427.389 32.9341C425.741 31.6345 424.045 31.3116 423.193 30.4318C417.718 24.7894 410.33 28.559 406.816 31.465C402.668 34.9037 405.056 38.8106 405.562 42.3946C406.077 45.9867 419.68 59.5316 419.68 59.5316Z" fill="#9E9E9E"/>
<path d="M425.13 32.7323L428.555 36.4535C438.227 31.6184 446.387 44.7194 446.387 44.7194C448.582 43.5893 450.214 42.2412 451.412 40.8367L449.916 38.4958L452.055 40.0456C453.156 38.5684 453.823 37.0751 454.225 35.7836L450.977 32.6839L454.547 34.5566C454.885 32.9906 454.828 31.9332 454.828 31.9332C440.59 17.2581 425.13 32.7323 425.13 32.7323Z" fill="#9E9E9E"/>
<path d="M426.2 31.9735C427.992 32.474 429.415 33.8059 430.034 35.5737C430.139 35.8804 430.629 35.7513 430.525 35.4365C429.85 33.4992 428.306 32.0381 426.336 31.4811C426.015 31.4004 425.886 31.8847 426.2 31.9735Z" fill="#1C2F35"/>
<path d="M421.44 50.3295L421.352 52.0165L421.287 53.2838L421.223 54.5431L420.604 66.7239C417.959 69.5007 406.286 71.2927 407.459 64.4798L408.874 60.7424L410.169 57.3279L410.426 56.658L411.503 53.8005L421.44 50.3295Z" fill="#9E9E9E"/>
<path d="M421.898 65.1337C421.898 65.1337 417.324 74.3116 409.164 72.7214C403.938 71.7043 407.467 64.4717 407.467 64.4717C407.467 64.4717 411.68 63.8825 415.523 63.6161C418.08 63.9471 419.856 64.2296 419.856 64.2296C419.856 64.2296 420.21 64.391 420.837 64.6574C421.127 64.8027 421.488 64.9561 421.898 65.1337Z" fill="#9E9E9E"/>
<path d="M418.578 54.8014C413.409 61.3882 409.244 63.2852 408.07 62.8896L410.434 56.658L418.578 54.8014Z" fill="#1C2F35"/>
<path d="M424.664 48.8038C423.916 50.2972 423.289 51.2255 422.445 52.1376C422.099 52.5089 421.722 52.8802 421.296 53.2758C421.078 53.4776 420.853 53.6874 420.604 53.9215C420.282 54.2121 419.937 54.5189 419.551 54.874C417.147 57.0777 413.586 57.7558 411.857 57.5782C411.262 57.5136 410.691 57.4329 410.169 57.3199C405.176 56.2947 403.408 53.0982 405.498 45.6234C406.937 40.4896 406.036 37.3173 407.725 35.5414H407.733C407.837 35.4687 407.942 35.3961 408.046 35.3234C410.595 33.6041 413.73 32.9987 416.745 33.5314C431.771 36.1629 426.666 44.792 424.664 48.8038Z" fill="#9E9E9E"/>
<path d="M422.445 52.1376C422.099 52.5089 421.722 52.8802 421.295 53.2758L421.231 54.535C420.982 54.3655 420.773 54.1556 420.604 53.9296C419.977 53.0982 419.816 52.065 419.816 52.065C419.937 51.9277 420.628 51.9439 421.36 52.0165C421.73 52.0488 422.116 52.0972 422.445 52.1376Z" fill="#1C2F35"/>
<path d="M409.654 47.6576C409.654 47.6495 409.654 47.6495 409.654 47.6576C409.292 47.5527 408.641 47.1571 408.77 46.4387C408.89 45.7607 409.534 45.575 409.944 45.5669L410.434 44.7355C410.49 44.6386 410.627 44.5983 410.723 44.6629C410.82 44.7194 410.86 44.8566 410.796 44.9534L410.241 45.8898C410.201 45.9625 410.121 46.0028 410.04 45.9947C410.008 45.9947 409.276 45.9463 409.18 46.5114C409.083 47.036 409.735 47.2459 409.759 47.254C409.871 47.2863 409.936 47.4074 409.903 47.5204C409.879 47.6172 409.767 47.6818 409.654 47.6576Z" fill="#1C2F35"/>
<path d="M409.204 32.9825C409.204 32.9825 404.71 35.38 406.077 36.6069C407.435 37.8339 414.84 31.7475 419.213 40.7075C420.307 42.9435 418.667 45.0826 422.284 46.5759C425.902 48.0693 426.714 47.7706 427.976 44.5983C429.231 41.4259 426.505 33.588 418.747 32.1996C410.989 30.8031 409.204 32.9825 409.204 32.9825Z" fill="#9E9E9E"/>
<path d="M413.569 34.9763C413.569 34.9763 413.079 42.6771 421.006 44.1866C428.941 45.6961 424.359 33.6122 413.569 34.9763Z" fill="#9E9E9E"/>
<path d="M413.754 35.6544C414.832 32.9341 418.031 32.5709 420.564 32.4821C420.861 32.474 420.861 32.0139 420.564 32.022C417.79 32.1108 414.478 32.5951 413.312 35.5333C413.2 35.8078 413.642 35.9289 413.754 35.6544Z" fill="#A8681B"/>
<path d="M425.026 39.0528C424.117 39.0205 422.365 39.3111 421.529 39.8761C421.014 42.1201 418.409 47.8513 420.845 48.8523C424.463 50.3456 423.997 53.0175 426.883 46.9069C427.976 44.5902 428.346 41.2887 427.494 39.2303C426.674 39.1415 425.854 39.077 425.026 39.0528Z" fill="#9E9E9E"/>
<path d="M414.237 44.7274C413.722 44.5337 413.151 44.7113 412.814 45.1391C412.565 45.462 412.074 45.0584 412.323 44.7355C412.838 44.0817 413.714 43.8556 414.494 44.1462C414.88 44.2915 414.623 44.8727 414.237 44.7274Z" fill="#1C2F35"/>
<path d="M408.898 44.8324C408.641 44.3077 408.183 44.0332 407.604 44.0413C407.194 44.0494 407.138 43.4117 407.548 43.4036C408.44 43.3875 409.108 43.8072 409.501 44.6063C409.678 44.9777 409.075 45.1956 408.898 44.8324Z" fill="#1C2F35"/>
<path d="M408.601 53.0578C409.172 53.3969 409.823 53.5341 410.41 53.1708C410.707 52.9852 410.41 52.5331 410.112 52.7107C409.694 52.969 409.244 52.7995 408.85 52.5654C408.553 52.3959 408.304 52.8802 408.601 53.0578Z" fill="#6B2636"/>
<path d="M416.825 48.1823C416.729 48.6262 415.965 48.8442 415.113 48.6585C414.261 48.4729 413.65 47.9643 413.746 47.5204C413.843 47.0764 414.607 46.8585 415.459 47.0441C416.311 47.2298 416.922 47.7383 416.825 48.1823Z" fill="#6B2636"/>
<path d="M407.91 46.7455C407.813 47.1894 407.049 47.4074 406.197 47.2217C405.795 47.1329 405.45 46.9795 405.2 46.7858C405.289 46.4145 405.393 46.027 405.498 45.6234C405.498 45.6073 405.506 45.5911 405.514 45.575C405.803 45.5185 406.165 45.5266 406.535 45.5992C407.387 45.7929 407.998 46.3015 407.91 46.7455Z" fill="#6B2636"/>
<path d="M414.004 42.4915C414.655 42.3865 415.435 42.669 415.555 43.3955C415.668 44.0817 416.753 44.0252 416.641 43.331C416.432 42.0394 415.242 41.1919 413.939 41.4017C413.256 41.5067 413.312 42.5964 414.004 42.4915Z" fill="#1C2F35"/>
<path d="M407.548 42.6045C408.062 42.1847 408.73 41.5632 409.429 41.9103C410.056 42.217 410.563 41.2484 409.928 40.9416C408.81 40.4008 407.821 40.9901 406.953 41.6923C406.414 42.1282 407.001 43.0484 407.548 42.6045Z" fill="#1C2F35"/>
<path d="M407.403 48.6828C407.403 48.6828 409.349 49.4738 413.143 49.2962C413.143 49.2962 412.138 52.5896 409.429 51.9923C407.13 51.4838 407.403 48.6828 407.403 48.6828Z" fill="white"/>
<path d="M418.329 49.9259C418.192 48.7715 418.642 47.6253 419.471 46.802C420.54 45.7364 422.429 44.1543 423.812 44.6548C425.854 45.3893 425.701 47.3186 425.098 49.1832C424.487 51.0479 422.718 53.2838 420.178 52.3233C418.908 51.847 418.441 50.8703 418.329 49.9259Z" fill="#9E9E9E"/>
<path d="M420.837 50.9268L418.361 54.2202C418.232 54.3978 418.337 54.648 418.554 54.6722L422.284 55.1001C422.493 55.1243 422.654 54.9225 422.582 54.7287L421.328 51.0075C421.255 50.7896 420.974 50.7492 420.837 50.9268Z" fill="white"/>
<path d="M421.175 50.1519C421.215 49.3447 421.32 48.5213 421.754 47.819C422.14 47.1975 423.072 46.358 423.876 46.802C424.149 46.9472 424.423 46.5517 424.15 46.4064C423.37 45.9786 422.493 46.3176 421.882 46.8988C420.998 47.7302 420.757 48.9491 420.693 50.1196C420.676 50.4263 421.151 50.4586 421.175 50.1519Z" fill="#1C2F35"/>
<path d="M415.748 40.4089C415.748 40.4089 416.086 41.9668 417.629 44.8001C419.085 47.4639 418.305 49.272 417.018 51.4273C415.732 53.5906 419.31 56.0445 419.31 56.0445C419.31 56.0445 418.015 52.5089 419.728 49.6756C421.44 46.8423 421.625 42.5883 419.977 41.7811C418.321 40.9739 415.748 40.4089 415.748 40.4089Z" fill="#9E9E9E"/>
<path d="M421.191 45.3167C422.743 43.7184 425.082 43.1695 427.18 43.9041C427.462 44.0009 427.582 43.557 427.301 43.4601C425.05 42.6771 422.525 43.2825 420.861 44.9857C420.66 45.2037 420.982 45.5346 421.191 45.3167Z" fill="#A8681B"/>
<path d="M425.548 66.6431C425.581 71.2927 429.359 75.0623 433.998 75.0623C435.767 75.0623 437.415 74.5134 438.765 73.5771C438.701 73.3833 438.629 73.1896 438.548 73.0039C437.262 73.9242 435.694 74.465 433.998 74.465C429.769 74.465 426.304 71.0909 426.151 66.8772C425.942 66.7965 425.741 66.7239 425.548 66.6431Z" fill="#467B5B"/>
<path d="M392.554 74.5619C392.723 74.6345 392.9 74.6991 393.077 74.7556C393.913 75.0381 394.813 75.1915 395.746 75.1915C396.389 75.1915 397.016 75.1188 397.619 74.9816C401.382 74.126 404.195 70.7438 404.195 66.7158C404.195 65.279 403.842 63.9309 403.207 62.7443C402.973 62.7443 402.756 62.7524 402.531 62.7524C403.207 63.9148 403.6 65.2709 403.6 66.7077C403.6 70.4935 400.931 73.6578 397.386 74.4246C396.855 74.5376 396.309 74.5941 395.746 74.5941C394.837 74.5941 393.969 74.4408 393.157 74.1583C393.028 74.1098 392.9 74.0614 392.771 74.013L392.554 74.5619Z" fill="#467B5B"/>
<path d="M409.71 81.7137C409.71 86.3875 413.497 90.1975 418.16 90.1975C422.815 90.1975 426.61 86.3875 426.61 81.7137C426.61 77.04 422.823 73.23 418.16 73.23C413.497 73.23 409.71 77.0319 409.71 81.7137ZM410.305 81.7137C410.305 77.3629 413.827 73.8273 418.16 73.8273C422.493 73.8273 426.015 77.3709 426.015 81.7137C426.015 86.0646 422.493 89.6002 418.16 89.6002C413.827 89.6002 410.305 86.0646 410.305 81.7137Z" fill="#467B5B"/>
<path d="M390.102 88.1795C390.601 90.1733 391.863 91.8684 393.551 92.9339C394.757 93.6927 396.188 94.1367 397.716 94.1367C399.372 94.1367 400.907 93.6201 402.169 92.7402C404.219 91.3195 405.57 88.9382 405.57 86.2502C405.57 82.3756 402.772 79.1387 399.09 78.4849C398.64 78.4042 398.182 78.3638 397.716 78.3638C396.172 78.3638 394.733 78.8158 393.519 79.5908C393.342 79.7038 393.101 79.5988 393.069 79.389V79.3809C393.053 79.2679 393.101 79.1468 393.197 79.0822C394.508 78.2508 396.051 77.7665 397.716 77.7665C398.085 77.7665 398.455 77.7907 398.817 77.8391C402.957 78.388 406.165 81.9478 406.165 86.2502C406.165 89.4145 404.429 92.1832 401.864 93.6362C400.642 94.3304 399.227 94.734 397.716 94.734C396.236 94.734 394.845 94.3546 393.639 93.6766C391.798 92.6514 390.375 90.9563 389.708 88.9221C389.829 88.6719 389.965 88.4216 390.102 88.1795Z" fill="#467B5B"/>
<path d="M430.179 90.7302C430.42 90.7302 430.661 90.7464 430.895 90.7625C430.854 90.9563 430.814 91.15 430.774 91.3518C430.581 91.3357 430.38 91.3276 430.179 91.3276C425.846 91.3276 422.325 94.8632 422.325 99.214C422.325 103.137 425.195 106.406 428.941 107.004C428.973 107.205 428.997 107.415 429.021 107.617C424.913 107.044 421.73 103.5 421.73 99.214C421.73 94.5403 425.516 90.7302 430.179 90.7302Z" fill="#467B5B"/>
<path d="M400.264 105.736C400.264 107.084 400.602 108.352 401.197 109.457C400.963 109.433 400.73 109.409 400.497 109.385C399.967 108.279 399.669 107.036 399.669 105.728C399.669 101.046 403.464 97.2444 408.119 97.2444C412.774 97.2444 416.568 101.046 416.568 105.728C416.568 106.818 416.359 107.859 415.989 108.82C415.772 108.828 415.555 108.836 415.338 108.844C415.748 107.891 415.973 106.834 415.973 105.728C415.973 101.377 412.452 97.8417 408.119 97.8417C403.785 97.8498 400.264 101.393 400.264 105.736Z" fill="#467B5B"/>
<path d="M396.333 108.989C402.097 109.546 407.797 109.328 413.561 108.973C419.495 108.61 425.436 108.416 431.369 108.021C431.747 107.996 431.747 108.594 431.369 108.618C425.436 109.014 419.495 109.207 413.561 109.57C407.797 109.926 402.097 110.144 396.333 109.587C395.955 109.546 395.947 108.949 396.333 108.989Z" fill="#467B5B"/>
<path d="M431.916 88.6799C430.211 95.1134 429.448 101.741 429.624 108.392C429.632 108.771 429.046 108.771 429.03 108.392C428.853 101.692 429.632 95.0004 431.345 88.5266C431.441 88.1552 432.012 88.3086 431.916 88.6799Z" fill="#467B5B"/>
<path d="M392.064 82.9084C392.176 82.7147 392.297 82.5209 392.409 82.3272C392.691 82.2303 392.98 82.1577 393.27 82.085C391.573 85.0233 389.724 87.9212 389.789 91.4002C389.861 95.073 391.863 97.753 394.082 100.465C394.958 101.539 395.778 102.572 396.18 103.92C396.606 105.341 396.606 106.85 396.534 108.319C396.518 108.699 395.923 108.707 395.939 108.319C396.011 106.745 396.019 105.123 395.456 103.629C394.853 102.031 393.527 100.764 392.482 99.44C390.601 97.0749 389.25 94.4838 389.186 91.3922C389.129 88.2602 390.504 85.5399 392.064 82.9084Z" fill="#467B5B"/>
<path d="M280.925 127.055C280.925 127.055 280.121 123.535 281.544 120.75C282.967 117.965 283.49 115.382 284.672 113.389C285.853 111.387 286.103 114.446 285.942 116.133C285.781 117.82 285.62 119.733 286.746 119.54C287.879 119.346 296.048 112.46 297.623 112.388C299.199 112.315 298.146 113.873 298.146 113.873C298.146 113.873 299.987 112.339 300.871 112.928C301.756 113.518 300.815 114.85 300.815 114.85C300.815 114.85 302.077 113.865 302.503 114.898C302.921 115.923 296.554 122.752 296.988 123.212C297.422 123.672 299.81 118.773 301.032 119.257C302.254 119.741 300.051 122.276 298.524 124.496C297.004 126.716 294.818 128.572 292.43 129.299C290.05 130.025 286.264 132.624 284.181 130.768C282.115 128.887 280.925 127.055 280.925 127.055Z" fill="#9E9E9E"/>
<path d="M300.759 114.543C298.58 116.375 296.466 118.28 294.408 120.25C294.166 120.484 294.56 120.815 294.801 120.589C296.827 118.652 298.91 116.779 301.056 114.971C301.314 114.761 301.016 114.325 300.759 114.543Z" fill="#9E9E9E"/>
<path d="M298.001 113.857C296.225 115.092 294.617 116.512 293.161 118.111C292.936 118.361 293.33 118.7 293.555 118.45C294.978 116.884 296.562 115.495 298.299 114.285C298.58 114.099 298.283 113.663 298.001 113.857Z" fill="#9E9E9E"/>
<path d="M295.927 122.244C295.002 120.266 293.668 118.571 291.947 117.223C291.682 117.013 291.345 117.417 291.61 117.618C293.258 118.902 294.552 120.524 295.437 122.421C295.573 122.728 296.064 122.55 295.927 122.244Z" fill="#9E9E9E"/>
<path d="M291.497 120.815C288.314 121.404 285.934 123.761 285.323 126.958C285.259 127.289 285.773 127.378 285.837 127.047C286.4 124.092 288.595 121.872 291.546 121.332C291.867 121.275 291.827 120.75 291.497 120.815Z" fill="#9E9E9E"/>
<path d="M285.998 131.325C285.998 131.325 268.52 152.958 255.826 158.762C247.923 162.378 220.01 151.287 220.01 151.287C214.39 146.185 219.351 135.934 223.523 134.626C223.523 134.626 245.439 143.627 249.129 144.426C252.819 145.225 281.215 126.716 281.215 126.716L285.998 131.325Z" fill="#9E9E9E"/>
<path d="M249.169 144.959C249.861 146.355 250.552 147.751 251.235 149.148C251.436 149.552 252.031 149.196 251.838 148.793C251.147 147.396 250.455 146 249.772 144.603C249.571 144.2 248.976 144.555 249.169 144.959Z" fill="#9E9E9E"/>
<path d="M228.757 303.042C228.556 303.042 228.347 303.01 228.146 302.937L156.208 278.019C155.227 277.68 154.705 276.598 155.042 275.613C155.38 274.628 156.457 274.104 157.438 274.443L229.376 299.361C230.357 299.7 230.879 300.782 230.542 301.767C230.268 302.55 229.537 303.042 228.757 303.042Z" fill="#AAA9A8"/>
<path d="M145.974 303.042C145.194 303.042 144.462 302.55 144.197 301.767C143.859 300.782 144.382 299.7 145.363 299.361L217.292 274.451C218.273 274.112 219.351 274.637 219.688 275.621C220.026 276.606 219.503 277.688 218.522 278.027L146.585 302.945C146.384 303.01 146.175 303.042 145.974 303.042Z" fill="#AAA9A8"/>
<path d="M131.559 335.395C131.302 335.395 131.044 335.347 130.795 335.234C129.846 334.814 129.412 333.692 129.838 332.739L164.465 254.23C164.883 253.278 166 252.842 166.949 253.27C167.898 253.69 168.332 254.812 167.906 255.764L133.279 334.273C132.974 334.975 132.282 335.395 131.559 335.395Z" fill="#6F6F6F"/>
<path d="M243.943 335.395C243.22 335.395 242.528 334.975 242.223 334.273L207.597 255.764C207.179 254.812 207.605 253.69 208.553 253.27C209.502 252.85 210.62 253.278 211.038 254.23L245.664 332.739C246.082 333.692 245.656 334.814 244.707 335.234C244.458 335.347 244.193 335.395 243.943 335.395Z" fill="#6F6F6F"/>
<path d="M206.158 178.175C167.52 132.342 96.8603 184.237 128.898 234.946C129.219 235.455 129.541 235.955 129.879 236.464C159.159 280.868 228.757 256.813 228.757 256.813C228.757 256.813 238.034 238.474 230.099 219.109C226.666 210.746 219.166 193.609 206.158 178.175Z" fill="#6F6F6F"/>
<path d="M141.689 169.861C134.927 178.555 130.482 189.113 129.316 200.107C128.182 210.859 130.731 221.684 136.037 231.063C141.19 240.169 149.045 248.209 158.531 252.713C168.669 257.524 180.15 258.581 191.212 258.993C204.373 259.485 217.662 257.096 230.14 252.963C230.775 252.753 230.501 251.744 229.866 251.954C219.069 255.53 207.637 257.822 196.253 258.016C190.77 258.113 185.223 257.758 179.772 257.144C174.241 256.523 168.718 255.481 163.46 253.609C143.771 246.602 129.806 225.647 130.088 204.781C130.248 192.463 134.919 180.258 142.428 170.595C142.838 170.079 142.107 169.336 141.689 169.861Z" fill="#AAA9A8"/>
<path d="M190.842 186.417C176.781 171.863 152.044 177.812 146.569 197.33C144.88 203.352 145.298 210.003 149.535 216.986C165.799 243.777 232.334 229.368 232.334 229.368L190.842 186.417Z" fill="#AAA9A8"/>
<path d="M262.257 231.895L283.715 321.124C283.715 321.124 278.666 324.094 273.802 321.56L245.6 250.13C247.987 242.389 257.144 224.921 262.257 231.895Z" fill="#9E9E9E"/>
<path d="M305.221 335.395H274.269C274.269 335.395 273.818 330.649 273.424 326.411C273.167 323.658 272.934 321.124 272.862 320.252C272.677 318.04 275.708 320.809 275.708 320.809L280.829 321.907C280.829 321.907 281.102 319.8 282.79 319.332C283.514 319.13 284.744 319.13 285.829 319.743C288.571 321.285 287.469 324.135 287.469 324.135C287.469 324.135 296.924 327.646 299.472 327.832C301.74 327.993 303.75 329.325 304.851 333.627C304.996 334.168 305.116 334.757 305.221 335.395Z" fill="#009E10"/>
<path d="M286.505 322.133C286.368 322.851 285.347 323.255 284.213 323.045C283.08 322.835 282.268 322.076 282.405 321.366C282.541 320.647 283.562 320.244 284.696 320.454C285.829 320.664 286.641 321.422 286.505 322.133Z" fill="#1A1A68"/>
<path d="M305.221 335.395H274.269C274.269 335.395 273.818 330.649 273.424 326.411C273.891 326.161 276.327 325.846 278.264 327.807C280.491 330.068 280.218 331.843 283.008 331.359C285.797 330.875 287.606 329.099 290.677 330.713C293.113 331.997 294.303 333.619 294.303 333.619H304.851C304.996 334.168 305.116 334.757 305.221 335.395Z" fill="white"/>
<path d="M169.393 202.835C169.393 202.835 162.149 223.952 175.101 230.289C195.457 240.241 238.71 231.015 238.71 231.015C238.71 231.015 235.968 240.629 230.791 264.885C225.613 289.142 223.475 322.294 223.475 322.294L231.233 322.762C231.233 322.762 267.853 230.692 268.255 216.566C268.657 202.448 208.111 200.333 208.111 200.333L169.393 202.835Z" fill="#9E9E9E"/>
<path d="M262.828 236.262C259.862 246.869 255.762 257.104 252.176 267.509C252.031 267.921 252.682 268.098 252.827 267.686C256.413 257.282 260.513 247.046 263.48 236.439C263.592 236.02 262.941 235.842 262.828 236.262Z" fill="#9E9E9E"/>
<path d="M205.241 129.129C205.241 129.129 198.826 129.113 194.549 131.559C186.919 135.934 171.266 180.403 168.074 197.54C163.693 221.03 218.764 200.979 218.764 200.979C218.764 200.979 208.159 194.699 216.384 179.071C220.782 170.7 227.462 171.572 227.462 163.161C227.462 155.791 222.984 152.49 226.064 145.306C229.143 138.13 225.332 131.841 216.175 130.485C209.349 129.476 205.241 129.129 205.241 129.129Z" fill="#00A411"/>
<path d="M218.241 149.051C218.836 154.072 222.647 156.929 226.932 158.786C226.851 158.431 226.763 158.084 226.667 157.745C223.033 156.074 219.889 153.588 219.158 149.35C218.233 144.038 222.398 141.342 226.851 139.897C226.811 139.566 226.755 139.243 226.683 138.929C224.89 139.461 223.185 140.204 221.69 141.391C219.351 143.247 217.879 146.008 218.241 149.051Z" fill="#467B5B"/>
<path d="M190.03 155.84C194.5 158.382 195.915 164.041 193.865 168.634C191.494 173.962 185.818 176.48 180.254 176.496C179.692 176.496 179.692 175.624 180.254 175.624C185.223 175.608 190.288 173.55 192.732 168.981C195.031 164.687 193.962 159.085 189.596 156.598C189.106 156.316 189.548 155.565 190.03 155.84Z" fill="#467B5B"/>
<path d="M193.52 148.712C194.605 156.51 203.794 157.333 209.92 157.898C216.223 158.479 222.936 160.304 227.358 164.848C227.406 164.493 227.43 164.122 227.446 163.734C223.885 160.368 219.037 158.439 214.181 157.583C210.153 156.873 205.957 157.042 202.001 155.945C198.391 154.944 194.91 152.441 194.356 148.486C194.283 147.921 193.439 148.163 193.52 148.712Z" fill="#467B5B"/>
<path d="M213.265 190.598C213.249 190.154 213.257 189.694 213.281 189.218C211.488 186.699 210.845 183.414 211.922 180.234C213.297 176.197 216.898 173.744 220.774 173.477C221.119 173.162 221.465 172.872 221.803 172.589C217.317 172.452 212.943 175.043 211.223 179.604C209.751 183.519 210.732 187.684 213.265 190.598Z" fill="#467B5B"/>
<path d="M210.861 199.179C208.457 192.164 204.357 184.528 196.438 182.946C192.281 182.114 188.913 183.914 185.456 185.989C182.538 187.741 179.418 189.331 175.921 188.717C175.374 188.62 175.607 187.781 176.154 187.878C180.825 188.701 184.539 185.198 188.439 183.285C191.63 181.719 195.055 181.428 198.432 182.583C205.659 185.061 209.373 192.132 211.705 198.945C211.882 199.477 211.038 199.703 210.861 199.179Z" fill="#467B5B"/>
<path d="M220.725 138.154C217.421 141.019 213.039 142.093 208.795 141.068C208.352 140.963 208.537 140.277 208.98 140.39C212.967 141.35 217.116 140.341 220.219 137.653C220.573 137.355 221.071 137.855 220.725 138.154Z" fill="#467B5B"/>
<path d="M193.174 149.39C188.905 156.873 184.933 164.541 181.766 172.565C178.743 180.209 176.436 188.112 174.265 196.039C174.144 196.475 173.469 196.289 173.59 195.853C175.8 187.781 178.156 179.733 181.259 171.96C184.427 164.033 188.35 156.453 192.571 149.043C192.796 148.639 193.399 148.995 193.174 149.39Z" fill="#467B5B"/>
<path d="M227.205 98.205C227.205 98.205 235.341 101.127 234.955 106.697C234.288 116.278 230.614 118.2 232.785 121.332C235.486 125.238 235.534 127.595 232.431 131.438C229.553 134.998 221.561 133.109 221.561 133.109L193.471 126.191C194.179 126.336 199.308 122.671 199.284 118.999C199.26 115.076 197.909 113.51 200.844 110.676C202.829 108.763 205.748 110.071 207.146 106.931C208.545 103.791 208.344 101.676 211.785 98.3422C214.036 96.1708 220.347 92.9581 227.205 98.205Z" fill="#393939"/>
<path d="M226.803 123.785C226.417 124.835 226.948 126.005 227.993 126.393C229.038 126.78 230.204 126.247 230.59 125.198C230.976 124.149 230.445 122.978 229.4 122.591C228.355 122.195 227.189 122.736 226.803 123.785Z" fill="white"/>
<path d="M206.037 129.589C206.801 130.921 214.752 142.908 219.141 135.659L219.616 132.479L220.267 127.789L220.725 124.512L213.096 116.02L206.037 129.589Z" fill="#9E9E9E"/>
<path d="M213.498 121.775C214.985 130.735 217.96 134.715 219.27 134.949L220.275 127.7L213.498 121.775Z" fill="#2C2F37"/>
<path d="M210.636 112.872C210.724 116.246 211.343 117.505 212.855 121.154C214.205 124.415 217.373 126.716 219.133 127.329C225.549 129.573 229.287 127.708 230.799 118.579C231.739 112.904 234.071 110.216 233.227 107.706C233.154 107.585 233.09 107.464 233.018 107.343C231.321 104.493 228.532 102.451 225.34 101.579C209.462 97.2525 210.507 108.037 210.636 112.872Z" fill="#9E9E9E"/>
<path d="M224.351 115.931C224.271 115.915 224.19 115.859 224.142 115.786C223.443 114.68 222.269 114.26 222.261 114.26C222.084 114.204 221.996 114.01 222.052 113.833C222.108 113.655 222.301 113.558 222.478 113.623C222.534 113.639 223.885 114.123 224.705 115.431C224.801 115.584 224.753 115.794 224.6 115.891C224.528 115.939 224.431 115.956 224.351 115.931Z" fill="#1C2F35"/>
<path d="M227.527 116.658C227.446 116.642 227.366 116.585 227.318 116.512C227.221 116.359 227.269 116.149 227.422 116.052C228.757 115.205 229.601 115.576 229.689 115.625C229.858 115.705 229.923 115.907 229.842 116.069C229.762 116.23 229.569 116.295 229.4 116.222C229.368 116.206 228.781 115.972 227.776 116.617C227.704 116.658 227.607 116.674 227.527 116.658Z" fill="#1C2F35"/>
<path d="M226.61 120.92C226.61 120.92 224.793 120.444 221.216 119.54C221.216 119.54 220.886 123.495 223.531 123.866C225.774 124.189 226.61 120.92 226.61 120.92Z" fill="white"/>
<path d="M228.411 105.631C228.411 105.631 228.813 111.427 233.404 112.21C233.404 112.21 236.234 105.454 228.717 102.661C221.184 99.8598 228.411 105.631 228.411 105.631Z" fill="#393939"/>
<path d="M229.062 102.919C229.062 102.919 229.657 108.077 225.943 107.359C222.229 106.632 221.682 107.48 221.151 108.909C220.621 110.337 219.809 111.395 218.86 110.862C217.919 110.329 217.952 112.896 216.995 114.059C216.03 115.221 216.601 113.494 213.908 112.137C211.214 110.781 211.842 110.047 210.282 111.758C208.722 113.469 208.425 108.602 210.668 104.8C212.911 100.99 218.989 95.1295 229.062 102.919Z" fill="#393939"/>
<path d="M222.647 97.0265C222.647 97.0265 227.575 89.3499 218.137 86.7346C210.539 84.6277 205.04 95.6461 212.236 100.013C219.431 104.38 222.647 97.0265 222.647 97.0265Z" fill="#393939"/>
<path d="M222.542 96.1305C218.635 95.2587 214.503 96.4533 211.657 99.2786C211.424 99.5046 211.11 99.1171 211.335 98.8911C214.261 95.9852 218.571 94.734 222.582 95.63C222.904 95.6946 222.864 96.2031 222.542 96.1305Z" fill="white"/>
<path d="M218.579 115.867C218.466 116.343 219.117 116.908 220.034 117.118C220.95 117.328 221.778 117.118 221.891 116.634C222.004 116.157 221.352 115.592 220.436 115.382C219.519 115.173 218.691 115.39 218.579 115.867Z" fill="#9E9E9E"/>
<path d="M227.945 118.571C227.832 119.055 228.483 119.612 229.4 119.822C229.834 119.919 230.244 119.927 230.566 119.854C230.646 119.443 230.726 119.023 230.799 118.587C230.807 118.571 230.807 118.547 230.807 118.531C230.55 118.345 230.196 118.183 229.794 118.087C228.893 117.877 228.057 118.087 227.945 118.571Z" fill="#9E9E9E"/>
<path d="M223.684 124.996C222.976 125.061 222.277 124.899 221.867 124.278C221.658 123.963 222.156 123.648 222.365 123.963C222.663 124.407 223.177 124.447 223.668 124.407C224.038 124.375 224.062 124.964 223.684 124.996Z" fill="#9E9E9E"/>
<path d="M224.528 111.661C223.941 111.266 223.049 111.169 222.598 111.839C222.18 112.46 221.143 111.903 221.569 111.274C222.365 110.103 223.917 109.829 225.091 110.628C225.71 111.048 225.155 112.089 224.528 111.661Z" fill="#2C2F37"/>
<path d="M230.437 114.511C230.123 113.865 229.754 112.953 228.918 112.961C228.162 112.969 228.114 111.798 228.869 111.782C230.212 111.766 230.903 112.791 231.434 113.881C231.755 114.559 230.767 115.189 230.437 114.511Z" fill="#2C2F37"/>
<path d="M215.95 116.86C216.505 115.487 216.448 114.26 216.328 113.292C216.127 111.677 214.945 109.353 213.361 109.207C211.03 108.989 210.298 110.943 210.041 113.041C209.783 115.14 210.499 118.143 213.409 118.377C214.873 118.49 215.564 117.82 215.95 116.86Z" fill="#9E9E9E"/>
<path d="M208.891 117.126C208.481 118.224 209.044 119.451 210.137 119.862C211.231 120.274 212.453 119.709 212.863 118.611C213.273 117.513 212.71 116.286 211.616 115.875C210.515 115.463 209.301 116.028 208.891 117.126Z" fill="white"/>
<path d="M213.313 115.875C213.634 115.068 213.916 114.212 213.811 113.332C213.723 112.549 213.192 111.298 212.203 111.363C211.874 111.387 211.777 110.87 212.115 110.846C213.072 110.781 213.771 111.524 214.109 112.372C214.591 113.59 214.27 114.898 213.803 116.06C213.667 116.375 213.184 116.19 213.313 115.875Z" fill="#2C2F37"/>
<path d="M226.715 115.479C227.655 113.34 230.156 112.372 232.286 113.316C234.417 114.26 235.381 116.771 234.441 118.91C233.5 121.049 231 122.018 228.869 121.073C226.739 120.121 225.774 117.61 226.715 115.479ZM227.173 115.681C226.345 117.562 227.197 119.774 229.07 120.605C230.944 121.436 233.146 120.581 233.974 118.7C234.803 116.819 233.95 114.607 232.077 113.776C230.204 112.945 228.001 113.8 227.173 115.681Z" fill="white"/>
<path d="M217.405 112.775C218.346 110.636 220.846 109.667 222.976 110.612C225.107 111.556 226.072 114.067 225.131 116.206C224.19 118.345 221.69 119.313 219.56 118.369C217.429 117.417 216.464 114.914 217.405 112.775ZM217.871 112.977C217.043 114.858 217.895 117.069 219.769 117.901C221.642 118.732 223.845 117.877 224.673 115.996C225.501 114.115 224.649 111.903 222.775 111.072C220.902 110.24 218.699 111.096 217.871 112.977Z" fill="white"/>
<path d="M225.967 115.77C225.935 116.117 225.782 116.617 225.854 116.948C225.919 117.231 226.152 117.215 226.385 117.392C226.715 117.643 226.908 118.054 226.892 118.466C226.843 119.451 225.822 119.927 224.994 119.54C224.705 119.402 224.874 118.926 225.171 119.063C225.895 119.402 226.835 118.603 226.192 117.893C225.991 117.667 225.605 117.683 225.428 117.433C225.155 117.045 225.428 116.149 225.469 115.721C225.493 115.399 225.999 115.447 225.967 115.77Z" fill="#2C2F37"/>
<path d="M224.97 115.939C225.034 115.972 225.115 115.972 225.179 115.931C225.903 115.576 226.401 116.206 226.425 116.23C226.506 116.343 226.666 116.359 226.779 116.278C226.892 116.198 226.916 116.036 226.827 115.923C226.57 115.576 225.846 115.035 224.962 115.471C224.833 115.536 224.785 115.681 224.85 115.81C224.874 115.875 224.922 115.915 224.97 115.939Z" fill="white"/>
<path d="M217.919 112.234C218 112.267 218.096 112.267 218.169 112.21C218.281 112.129 218.305 111.968 218.225 111.855C218.185 111.798 217.212 110.45 215.572 109.724C215.556 109.716 215.548 109.716 215.532 109.708C215.403 109.651 215.258 109.708 215.202 109.837C215.146 109.966 215.202 110.111 215.331 110.168C215.339 110.168 215.355 110.176 215.363 110.184C216.874 110.854 217.807 112.137 217.815 112.145C217.847 112.194 217.879 112.218 217.919 112.234Z" fill="white"/>
<path d="M224.954 251.712C224.994 251.68 225.026 251.639 225.067 251.607C232.712 244.286 239.964 236.577 246.653 228.359C252.248 221.49 257.474 214.306 263.319 207.646C253.165 201.842 233.283 200.575 225.726 200.341C215.676 200.026 214.527 195.974 214.527 195.974C199.123 200.373 177.794 198.872 169.819 190.348C169.819 190.348 160.598 211.19 167.817 230.297C172.721 243.277 216.255 243.551 224.367 251.115C224.584 251.292 224.769 251.502 224.954 251.712Z" fill="#1C2F35"/>
<path d="M234.167 241.783C231.088 237.077 226.795 233.275 221.746 230.797C215.894 227.931 209.478 227.488 203.07 227.294C193.077 226.987 180.52 226.43 174.884 216.59C171.909 211.4 171.732 205.136 172.569 199.356C172.657 198.759 173.557 199.009 173.469 199.607C172.657 205.209 172.858 211.343 175.816 216.332C178.671 221.135 183.768 223.758 189.025 225.026C200.192 227.722 212.043 224.816 222.647 230.208C227.655 232.751 231.892 236.609 234.971 241.315C235.309 241.815 234.497 242.284 234.167 241.783Z" fill="#44584F"/>
<path d="M194.693 135.337C190.802 136.265 188.342 140.107 189.106 144.046C191.236 155.016 195.497 175.536 198.641 181.549C204.976 193.706 248.598 174.099 248.598 174.099L246.291 167.859L210.732 169.627L203.657 140.818C202.669 136.83 198.673 134.384 194.693 135.337Z" fill="#9E9E9E"/>
<path d="M210.403 169.49C209.1 170.563 207.806 171.645 206.503 172.718C206.158 173.001 206.648 173.493 206.994 173.211C208.296 172.137 209.591 171.056 210.893 169.982C211.247 169.699 210.748 169.207 210.403 169.49Z" fill="#9E9E9E"/>
<path d="M207.323 170.337C208.047 170.491 208.762 170.644 209.486 170.797C209.92 170.894 210.105 170.216 209.671 170.127C208.947 169.974 208.232 169.821 207.508 169.667C207.074 169.57 206.889 170.248 207.323 170.337Z" fill="#9E9E9E"/>
<path d="M242.344 170.264C242.038 172.783 243.943 175.003 246.436 175.39C247.754 175.592 249.177 175.939 250.198 176.528C252.65 177.933 255.159 180.274 256.598 180.637C258.72 181.162 257.579 179.095 257.402 178.853C256.268 177.336 254.347 175.511 254.347 175.511C254.347 175.511 258.527 177.868 259.685 179.37C260.835 180.871 262.539 180.92 262.257 178.894C261.984 176.876 257.908 173.316 256.517 172.638C256.517 172.638 259.468 173.421 261.1 175.406C262.724 177.392 263.576 177.885 264.541 178.248C265.514 178.619 266.044 176.593 263.705 173.881C261.365 171.169 259.789 170.717 258.165 170.087C258.165 170.087 259.58 170.071 261.856 170.555C264.131 171.031 265.827 173.477 267.17 173.138C268.544 172.791 266.47 170.063 264.653 169.07C262.836 168.077 261.598 167.205 258.969 166.923C256.34 166.64 253.824 166.454 252.208 166.664C250.592 166.874 244.755 166.858 243.075 168.497C242.649 168.916 242.432 169.554 242.344 170.264Z" fill="#9E9E9E"/>
<path d="M247.73 167.133C247.73 167.133 252.152 164.864 253.832 164.945C255.504 165.034 258.085 164.267 258.117 165.397C258.157 166.527 254.966 167.383 254.966 167.383L247.73 167.133Z" fill="#9E9E9E"/>
<path d="M253.551 335.395H222.598C222.598 335.395 222.148 330.649 221.754 326.411C221.497 323.658 221.264 321.124 221.192 320.252C221.007 318.04 224.038 320.809 224.038 320.809L229.159 321.907C229.159 321.907 230.156 320.002 231.852 319.534C232.576 319.332 234.28 318.799 235.454 319.905C237.737 322.068 235.807 324.135 235.807 324.135C235.807 324.135 245.262 327.646 247.81 327.832C250.078 327.993 252.087 329.325 253.189 333.627C253.318 334.168 253.438 334.757 253.551 335.395Z" fill="#009E10"/>
<path d="M235.446 321.907C235.446 322.633 234.513 323.222 233.355 323.222C232.198 323.222 231.265 322.633 231.265 321.907C231.265 321.18 232.198 320.591 233.355 320.591C234.513 320.583 235.446 321.172 235.446 321.907Z" fill="#1A1A68"/>
<path d="M253.551 335.395H222.598C222.598 335.395 222.148 330.649 221.754 326.411C222.221 326.161 224.657 325.846 226.594 327.807C228.821 330.068 228.548 331.843 231.337 331.359C234.127 330.875 235.936 329.099 239.007 330.713C241.443 331.997 242.633 333.619 242.633 333.619H253.181C253.318 334.168 253.438 334.757 253.551 335.395Z" fill="white"/>
<path d="M205.595 129.331C207.219 132.649 209.14 135.821 211.359 138.775C213.232 141.278 215.347 144.03 218.305 145.273C219.359 145.709 220.669 145.976 221.674 145.281C222.703 144.571 222.896 143.231 222.888 142.069C222.856 138.549 221.803 135.014 220.235 131.89C220.034 131.486 219.431 131.841 219.632 132.245C221.055 135.078 221.947 138.162 222.148 141.326C222.253 142.965 222.092 145.16 219.897 144.991C218.434 144.878 217.035 143.885 215.95 142.957C213.859 141.181 212.187 138.84 210.636 136.596C208.963 134.174 207.484 131.623 206.19 128.984C205.997 128.572 205.394 128.927 205.595 129.331Z" fill="white"/>
<path d="M399.388 194.901H166.056V201.738H399.388V194.901Z" fill="#1C2F35"/>
<path d="M391.019 201.746H174.611V207.775H391.019V201.746Z" fill="#1C2F35"/>
<path d="M294.753 202.569H174.667C174.635 202.569 174.602 202.545 174.602 202.504V201.818C174.602 201.786 174.627 201.754 174.667 201.754H294.753C294.785 201.754 294.818 201.778 391.019 201.818V202.504C294.818 202.545 294.785 202.569 294.753 202.569Z" fill="#44584F"/>
<path d="M365.413 207.767L398.6 334.661H404.396L375.952 207.767H365.413Z" fill="#1C2F35"/>
<path d="M209.277 207.767L176.419 334.661H170.615L198.737 207.767H209.277Z" fill="#1C2F35"/>
<path d="M243.389 195.022L304.754 194.901L306.499 188.451L245.125 188.58L243.389 195.022Z" fill="#009E10"/>
<path d="M266.567 191.655L300.871 191.583C302.077 191.583 303.13 190.687 303.436 189.411L310.229 161.014C310.672 159.165 309.393 157.365 307.657 157.365L272.926 157.438C271.35 157.438 269.983 158.6 269.581 160.271L263.214 186.893C262.635 189.307 264.291 191.655 266.567 191.655Z" fill="#009E10"/>
<path d="M269.389 191.647L303.693 191.575C304.899 191.575 305.952 190.679 306.258 189.403L313.051 161.006C313.493 159.157 312.215 157.357 310.479 157.357L275.748 157.43C274.172 157.43 272.805 158.592 272.403 160.263L266.036 186.885C265.449 189.298 267.113 191.656 269.389 191.647Z" fill="#009E10"/>
<path d="M285.845 176.609C285.484 178.918 286.842 180.782 288.868 180.782C290.894 180.782 292.832 178.902 293.194 176.593C293.555 174.284 292.197 172.42 290.171 172.42C288.137 172.428 286.199 174.301 285.845 176.609Z" fill="#1C2F35"/>
<path d="M272.194 159.965C269.959 169.465 267.732 178.966 265.497 188.467C265.409 188.855 265.988 189.064 266.084 188.677C268.319 179.176 270.546 169.675 272.781 160.174C272.87 159.787 272.291 159.577 272.194 159.965Z" fill="#1C2F35"/>
<path d="M367.415 186.029H332.298V194.909H367.415V186.029Z" fill="#467B5B"/>
<path d="M366.305 186.029H323.326V193.706H366.305V186.029Z" fill="#0FA720"/>
<path d="M366.305 187.224H331.188V194.901H366.305V187.224Z" fill="white"/>
<path d="M365.766 193.02H358.442V192.527H365.766C365.831 192.527 365.879 192.576 365.879 192.64V192.907C365.879 192.971 365.831 193.02 365.766 193.02Z" fill="#ACC7C1"/>
<path d="M365.766 190.356H358.442V189.864H365.766C365.831 189.864 365.879 189.912 365.879 189.977V190.243C365.879 190.307 365.831 190.356 365.766 190.356Z" fill="#ACC7C1"/>
<path d="M358.442 187.224H323.326V194.901H358.442V187.224Z" fill="#0FA720"/>
<path d="M354.471 188.378H352.469V193.706H354.471V188.378Z" fill="#467B5B"/>
<path d="M345.579 187.224H344.293V194.901H345.579V187.224Z" fill="#2B2B39"/>
<path d="M349.39 187.224H348.104V194.901H349.39V187.224Z" fill="#2B2B39"/>
<path d="M330.585 190.461C330.585 191.736 329.556 192.769 328.286 192.769C327.016 192.769 325.987 191.736 325.987 190.461C325.987 189.185 327.016 188.152 328.286 188.152C329.556 188.16 330.585 189.194 330.585 190.461Z" fill="#2B2B39"/>
<path d="M363.363 177.15H328.246V186.029H363.363V177.15Z" fill="#821327"/>
<path d="M362.253 177.15H319.274V184.827H362.253V177.15Z" fill="#C01C27"/>
<path d="M362.261 178.345H327.145V186.021H362.261V178.345Z" fill="white"/>
<path d="M361.722 184.132H354.398V183.64H361.722C361.787 183.64 361.835 183.688 361.835 183.753V184.019C361.835 184.084 361.779 184.132 361.722 184.132Z" fill="#ACC7C1"/>
<path d="M361.722 181.469H354.398V180.976H361.722C361.787 180.976 361.835 181.025 361.835 181.089V181.356C361.835 181.42 361.779 181.469 361.722 181.469Z" fill="#ACC7C1"/>
<path d="M354.39 178.345H319.274V186.021H354.39V178.345Z" fill="#C01C27"/>
<path d="M350.427 179.499H348.425V184.827H350.427V179.499Z" fill="#821327"/>
<path d="M341.527 178.345H340.241V186.021H341.527V178.345Z" fill="#2B2B39"/>
<path d="M345.346 178.345H344.06V186.021H345.346V178.345Z" fill="#2B2B39"/>
<path d="M326.542 181.848C326.542 183.123 325.512 184.157 324.242 184.157C322.972 184.157 321.943 183.123 321.943 181.848C321.943 180.573 322.972 179.539 324.242 179.539C325.512 179.547 326.542 180.573 326.542 181.848Z" fill="#2B2B39"/>
<path d="M368.733 168.271H333.616V177.15H368.733V168.271Z" fill="#A8681B"/>
<path d="M367.632 168.271H324.652V175.947H367.632V168.271Z" fill="#ECB867"/>
<path d="M367.632 169.465H332.515V177.142H367.632V169.465Z" fill="white"/>
<path d="M367.093 175.132H359.769V174.64H367.093C367.157 174.64 367.205 174.688 367.205 174.753V175.019C367.205 175.084 367.157 175.132 367.093 175.132Z" fill="#ACC7C1"/>
<path d="M367.093 172.468H359.769V171.976H367.093C367.157 171.976 367.205 172.024 367.205 172.089V172.355C367.205 172.42 367.157 172.468 367.093 172.468Z" fill="#ACC7C1"/>
<path d="M359.769 169.465H324.652V177.142H359.769V169.465Z" fill="#ECB867"/>
<path d="M355.797 170.62H353.796V175.947H355.797V170.62Z" fill="#A8681B"/>
<path d="M346.906 169.465H345.619V177.142H346.906V169.465Z" fill="#2B2B39"/>
<path d="M350.716 169.465H349.43V177.142H350.716V169.465Z" fill="#2B2B39"/>
<path d="M331.912 172.969C331.912 174.244 330.883 175.277 329.613 175.277C328.342 175.277 327.313 174.244 327.313 172.969C327.313 171.693 328.342 170.66 329.613 170.66C330.883 170.668 331.912 171.701 331.912 172.969Z" fill="#2B2B39"/>
<path d="M490.628 45.8494L492.285 41.765L488.474 40.2071C488.675 39.1577 488.699 38.076 488.554 36.9944L492.252 35.4284L490.548 31.36L487.011 32.8615C486.263 31.7314 485.314 30.7869 484.221 30.0604L485.772 26.2262L481.704 24.5634L480.105 28.5106C479.228 28.3895 478.328 28.3895 477.427 28.5106L475.868 24.7974L471.816 26.5087L473.311 30.0604C472.186 30.8111 471.245 31.7637 470.522 32.8615L467.185 31.4973L465.529 35.5818L468.978 36.9944C468.825 38.1164 468.857 39.2788 469.107 40.425L465.569 41.9264L467.274 45.9947L470.972 44.4288C471.752 45.4297 472.7 46.2611 473.769 46.8827L472.21 50.7331L476.278 52.3959L477.966 48.2146C478.915 48.2953 479.888 48.2307 480.844 48.0208L482.34 51.5726L486.392 49.8613L484.832 46.1481C485.547 45.5911 486.174 44.9454 486.697 44.227L490.628 45.8494ZM480.322 42.0717C478.272 42.9354 475.908 41.9748 475.048 39.9165C474.188 37.8581 475.144 35.4849 477.194 34.6212C479.244 33.7575 481.608 34.718 482.468 36.7764C483.337 38.8267 482.372 41.1999 480.322 42.0717Z" fill="#4E554F"/>
<path d="M51.8791 146.298L53.5352 142.214L49.7245 140.656C49.9255 139.607 49.9496 138.525 49.8049 137.443L53.5031 135.877L51.7987 131.809L48.2613 133.31C47.5136 132.18 46.5649 131.236 45.4716 130.509L47.0232 126.675L42.9552 125.012L41.3553 128.96C40.479 128.839 39.5786 128.839 38.6782 128.96L37.1185 125.246L33.0666 126.958L34.5619 130.509C33.4364 131.26 32.4958 132.213 31.7722 133.31L28.4358 131.946L26.7797 136.031L30.2286 137.443C30.0759 138.565 30.108 139.728 30.3573 140.874L26.8199 142.375L28.5242 146.444L32.2224 144.878C33.0023 145.879 33.9509 146.71 35.0202 147.332L33.4605 151.182L37.5285 152.845L39.2168 148.664C40.1655 148.744 41.1383 148.68 42.095 148.47L43.5903 152.022L47.6422 150.31L46.0826 146.597C46.7981 146.04 47.4252 145.394 47.9477 144.676L51.8791 146.298ZM41.5804 142.513C39.5304 143.376 37.1667 142.416 36.3065 140.357C35.4463 138.299 36.403 135.926 38.4531 135.062C40.5031 134.198 42.8668 135.159 43.727 137.217C44.5872 139.268 43.6225 141.649 41.5804 142.513Z" fill="#4E554F"/>
<path d="M355.564 33.927V48.3356C355.564 49.5142 356.513 50.4667 357.679 50.4667H376.668L382.802 52.6623C383.357 52.856 383.888 52.3071 383.67 51.7501L381.106 45.3328V33.927C381.106 32.7484 380.149 31.7959 378.983 31.7959H357.679C356.513 31.7959 355.564 32.7565 355.564 33.927Z" fill="#009E10"/>
<path d="M364.464 46.8423L361.288 42.4188L363.194 41.0385L364.721 43.1614L372.407 35.1216L374.103 36.7603L364.464 46.8423Z" fill="#FFFFFB"/>
<path d="M121.212 28.551C121.019 28.551 120.834 28.4783 120.689 28.3492C120.448 28.1312 120.36 27.7922 120.472 27.4854L122.579 21.6009C121.156 19.3488 120.4 16.7496 120.4 14.0616C120.4 6.3043 126.687 -0.0080719 134.421 -0.0080719C142.147 -0.0080719 148.434 6.3043 148.434 14.0616C148.434 21.8188 142.147 28.1393 134.421 28.1393C131.679 28.1393 129.042 27.3482 126.767 25.8549L121.574 28.4622C121.453 28.5267 121.333 28.551 121.212 28.551ZM134.413 0.799137C127.121 0.799137 121.196 6.75634 121.196 14.0696C121.196 16.6608 121.944 19.1793 123.35 21.3345L123.463 21.504L121.22 27.7599L126.824 24.9347L127.017 25.0638C129.203 26.5572 131.76 27.3402 134.421 27.3402C141.713 27.3402 147.638 21.383 147.638 14.0696C147.63 6.75634 141.705 0.799137 134.413 0.799137Z" fill="#1C2F35"/>
<path d="M130.055 14.7396C130.055 15.6921 129.284 16.4671 128.335 16.4671C127.386 16.4671 126.615 15.6921 126.615 14.7396C126.615 13.7871 127.386 13.0122 128.335 13.0122C129.284 13.0122 130.055 13.7871 130.055 14.7396Z" fill="#1C2F35"/>
<path d="M142.211 14.7396C142.211 15.6921 141.439 16.4671 140.491 16.4671C139.542 16.4671 138.77 15.6921 138.77 14.7396C138.77 13.7871 139.542 13.0122 140.491 13.0122C141.439 13.0122 142.211 13.7871 142.211 14.7396Z" fill="#1C2F35"/>
<path d="M136.133 14.7396C136.133 15.6921 135.362 16.4671 134.413 16.4671C133.464 16.4671 132.692 15.6921 132.692 14.7396C132.692 13.7871 133.464 13.0122 134.413 13.0122C135.362 13.0122 136.133 13.7871 136.133 14.7396Z" fill="#1C2F35"/>
</g>
<defs>
<clipPath id="clip0_0_26">
<rect width="493" height="344" fill="white"/>
</clipPath>
</defs>
</svg>
